<?xml version="1.0" encoding="UTF-8"?>
<svg width="301px" height="45px" viewBox="0 0 301 45" version="1.1" xmlns="http://www.w3.org/2000/svg" xmlns:xlink="http://www.w3.org/1999/xlink">
    <title>Group 3</title>
    <defs>
        <polyline id="path-1" points="0 18.3216854 179.193659 19.5304096 179.275683 1.20815466 0.0803157978 0"></polyline>
    </defs>
    <g id="web-final" stroke="none" stroke-width="1" fill="none" fill-rule="evenodd">
        <g id="websit-2" transform="translate(-23.000000, -34.000000)">
            <g id="Group-3" transform="translate(23.356435, 34.368050)">
                <circle id="Oval" fill="#FFFFFF" opacity="0.527320499" cx="23.0966431" cy="20.0911339" r="12.9736434"></circle>
                <g id="Group-2">
                    <g id="Group">
                        <path d="M28.5648962,37.3545664 C30.8392959,38.8370004 32.9003366,40.0717664 34.7405132,41.0649399 C37.0234901,39.0957473 39.1749492,36.9435734 41.1226988,34.6538061 C40.1445354,32.798262 38.918704,30.7268571 37.4398439,28.4474541 C35.1046887,28.9399309 32.5951296,29.3984562 29.9454754,29.8201708 C29.5241182,32.4851925 29.0616617,35.0026141 28.5648962,37.3545664" id="Fill-1" fill="#009A3F"></path>
                        <path d="M15.9762156,37.3545664 C16.5423138,40.0142273 17.1319995,42.3608188 17.7427709,44.3650352 C20.7480233,44.59948 23.7936603,44.59948 26.7989128,44.3650352 C27.4143302,42.3608188 27.9972255,40.0142273 28.5647533,37.3545664 C26.5516022,36.0468938 24.4473179,34.5884046 22.2669106,33.0026863 C20.0932936,34.5884046 17.9879371,36.0468938 15.9762156,37.3545664" id="Fill-3" fill="#009A3F"></path>
                        <path d="M7.10248307,28.4475255 C5.62433772,30.7269286 4.39600465,32.7983334 3.42070034,34.6535202 C5.36630558,36.9436448 7.51526302,39.0958188 9.80074163,41.0650114 C11.6330558,40.0761265 13.7083918,38.8370718 15.9763586,37.3546379 C15.4756618,35.0026856 15.0153497,32.485264 14.6022123,29.8202422 C11.9471974,29.3985277 9.43442176,28.9475075 7.10248307,28.4475255" id="Fill-5" fill="#009A3F"></path>
                        <path d="M7.12850072,15.8984789 C4.49206981,16.4613607 2.16620667,17.0635548 0.186649827,17.6811165 C-0.0502965865,20.6785065 -0.0649493813,23.7152089 0.16163286,26.7065233 C2.1411897,27.3051436 4.46383637,27.8891111 7.1024116,28.4477042 C8.40222171,26.4366975 9.8553501,24.3227638 11.4417832,22.143786 C9.86571427,19.9862513 8.42616652,17.893046 7.12850072,15.8984789" id="Fill-7" fill="#009A3F"></path>
                        <path d="M16.0109177,7.05022796 C13.7468822,5.59602743 11.6972779,4.38735055 9.87461316,3.43527627 C7.59878395,5.37123211 5.44446573,7.51232708 3.49886049,9.78279551 C4.45415123,11.6022438 5.67319228,13.6411266 7.12846498,15.8983717 C9.46397752,15.3844517 11.9721071,14.9191362 14.6174727,14.4984937 C15.0431185,11.8531282 15.5059324,9.36000877 16.0109177,7.05022796" id="Fill-9" fill="#009A3F"></path>
                        <path d="M28.5339467,7.05022796 C27.9657041,4.42880723 27.3803071,2.13653831 26.7684636,0.173421187 C23.7814378,-0.0578070625 20.7558143,-0.0578070625 17.7755788,0.173421187 C17.1673091,2.13653831 16.5794104,4.42880723 16.0108105,7.05022796 C18.0128826,8.32502111 20.1017993,9.76635578 22.2668391,11.3324179 C24.4375971,9.76635578 26.5340189,8.32502111 28.5339467,7.05022796" id="Fill-11" fill="#009A3F"></path>
                        <path d="M37.4131472,15.8984789 C38.8705642,13.6412338 40.081028,11.6019936 41.0459682,9.78254534 C39.089284,7.51207691 36.9453299,5.37098194 34.6730746,3.43538348 C32.8379014,4.38745776 30.790084,5.59613464 28.5339109,7.05033518 C29.0331781,9.3597586 29.4949199,11.8532354 29.9212804,14.498601 C32.5705772,14.9192434 35.0829955,15.384559 37.4131472,15.8984789" id="Fill-13" fill="#009A3F"></path>
                        <path d="M44.3501019,17.6810093 C42.3669712,17.063805 40.0478984,16.4648273 37.4132544,15.8983717 C36.1134443,17.8929387 34.6792573,19.9861441 33.1039032,22.1436788 C34.6856903,24.323014 36.1395334,26.4369477 37.4397009,28.447597 C40.0804205,27.8890039 42.4009228,27.3053938 44.3790501,26.7064161 C44.6070619,23.7154591 44.5934813,20.6787567 44.3501019,17.6810093" id="Fill-15" fill="#009A3F"></path>
                        <path d="M33.0896078,22.1752359 C33.0896078,25.0911421 31.8830752,27.7650984 29.9571262,29.7192809 C29.9496211,29.7528751 29.9453325,29.7900432 29.9453325,29.8204209 C32.5949866,29.3987064 35.1045458,28.9398237 37.4397009,28.4477042 C36.1391761,26.4366975 34.6856903,24.3227638 33.1039032,22.143786 C33.099972,22.1545076 33.0896078,22.1609405 33.0896078,22.1752359" id="Fill-17" fill="#12532A"></path>
                        <path d="M29.8485883,29.8377184 C27.8904746,31.7711725 25.2150887,32.9755608 22.2995399,32.9862823 C22.2877462,32.9927153 22.2784541,32.9995056 22.2670178,33.0027221 C24.4474252,34.5884404 26.5513521,36.0469295 28.5648605,37.3546021 C29.061626,35.0026499 29.5240825,32.4852282 29.9454397,29.8202065 C29.9082716,29.8312855 29.8782513,29.8312855 29.8485883,29.8377184" id="Fill-19" fill="#12532A"></path>
                        <path d="M22.2475046,32.9863896 C19.3248081,32.9753106 16.64835,31.7680633 14.6963119,29.8378256 C14.6666489,29.8310353 14.6312677,29.8310353 14.6023195,29.8203137 C15.0154569,32.4853355 15.4757691,35.0023997 15.9761084,37.3547093 C17.9878299,36.0470368 20.0931864,34.5885476 22.2671608,33.0024719 C22.2610852,32.9992554 22.2546523,32.9928225 22.2475046,32.9863896" id="Fill-21" fill="#12532A"></path>
                        <path d="M14.5882386,29.7257853 C12.656214,27.7716028 11.4521831,25.0912135 11.449324,22.1685171 C11.4461075,22.161012 11.4418189,22.1513626 11.4418189,22.1438575 C9.85538583,24.3228353 8.40225745,26.436769 7.10244733,28.4474183 C9.43438602,28.9474003 11.9471616,29.3984205 14.602534,29.820135 C14.602534,29.7897573 14.5925272,29.7604517 14.5882386,29.7257853" id="Fill-23" fill="#12532A"></path>
                        <path d="M11.4521473,22.1305985 C11.4639411,19.212548 12.6711884,16.5439524 14.6024982,14.5954881 C14.6060721,14.5604643 14.6132198,14.5300866 14.6175084,14.4986367 C11.9721429,14.9192791 9.46401326,15.3842373 7.12850072,15.8985147 C8.42616652,17.8927243 9.86571427,19.986287 11.4417832,22.1438217 C11.4417832,22.1402479 11.4460718,22.1338149 11.4521473,22.1305985" id="Fill-25" fill="#12532A"></path>
                        <path d="M14.7170045,14.481232 C16.6722591,12.5563551 19.338353,11.357685 22.248541,11.3466061 C22.2546165,11.3401732 22.2610495,11.3401732 22.267125,11.3326681 C20.1020852,9.76624857 18.0131685,8.32527128 16.0110964,7.05012075 C15.5061111,9.35990155 15.0429398,11.8533784 14.6176514,14.4987439 C14.654462,14.4887371 14.6844824,14.4844485 14.7170045,14.481232" id="Fill-27" fill="#12532A"></path>
                        <path d="M22.2963591,11.3467133 C25.2026159,11.3577923 27.8665655,12.5564623 29.8239644,14.4813392 C29.857916,14.4845557 29.8961563,14.4888443 29.9215306,14.4984937 C29.4948126,11.8531282 29.0334283,9.36000877 28.5338037,7.05022796 C26.5342333,8.32502111 24.4374541,9.76635578 22.2670536,11.3324179 C22.2784899,11.3402804 22.2877819,11.3402804 22.2963591,11.3467133" id="Fill-29" fill="#12532A"></path>
                        <path d="M29.9419373,14.5953094 C31.8700307,16.5537805 33.0769206,19.2123693 33.0897865,22.1229147 C33.0897865,22.1304198 33.0997933,22.1404266 33.1037245,22.143643 C34.6790787,19.9861084 36.1132656,17.892903 37.4130757,15.898336 C35.082924,15.384416 32.5705057,14.9194578 29.921209,14.498458 C29.9333601,14.5302653 29.9376487,14.5638595 29.9419373,14.5953094" id="Fill-31" fill="#12532A"></path>
                    </g>
                    <path d="M54.0861284,31.8064963 L52.2223462,26.6161591 L50.4098294,31.8064963 L54.0861284,31.8064963 Z M49.0119927,35.7789954 C48.9595881,35.9493105 48.9447781,36.0546894 48.9447781,36.2608902 L47.8562427,36.2608902 C47.9781404,36.070069 48.0288362,35.9493105 48.0988989,35.7789954 L51.8589314,25.1659178 C51.9101968,24.9927547 51.9278549,24.9044642 51.9449434,24.7523769 L53.6025248,24.7523769 C53.6190436,24.8902239 53.6384105,24.9739573 53.6896759,25.1323105 L57.5710365,35.7789954 C57.6410993,35.9493105 57.6923647,36.040449 57.8478697,36.2608902 L55.6041539,36.2608902 C55.6041539,36.070069 55.5887743,35.9851963 55.5175724,35.7789954 L54.4136573,32.6540843 L50.1347051,32.6540843 L49.0119927,35.7789954 Z" id="Fill-33" fill="#FFFFFF"></path>
                    <path d="M54.0861284,31.8064963 L52.2223462,26.6161591 L50.4098294,31.8064963 L54.0861284,31.8064963 Z M49.0119927,35.7789954 C48.9595881,35.9493105 48.9447781,36.0546894 48.9447781,36.2608902 L47.8562427,36.2608902 C47.9781404,36.070069 48.0288362,35.9493105 48.0988989,35.7789954 L51.8589314,25.1659178 C51.9101968,24.9927547 51.9278549,24.9044642 51.9449434,24.7523769 L53.6025248,24.7523769 C53.6190436,24.8902239 53.6384105,24.9739573 53.6896759,25.1323105 L57.5710365,35.7789954 C57.6410993,35.9493105 57.6923647,36.040449 57.8478697,36.2608902 L55.6041539,36.2608902 C55.6041539,36.070069 55.5887743,35.9851963 55.5175724,35.7789954 L54.4136573,32.6540843 L50.1347051,32.6540843 L49.0119927,35.7789954 Z" id="Stroke-35" stroke="#000000" stroke-width="0.25" fill="#000000"></path>
                    <path d="M59.0191133,36.2607193 C59.0703787,36.0408477 59.0886064,35.896735 59.0886064,35.7247111 L59.0886064,25.3041635 C59.0886064,25.1133423 59.0703787,24.9925838 59.0191133,24.7527756 L61.0737167,24.7527756 C61.0207425,24.9584068 61.003654,25.0979627 61.003654,25.3041635 L61.003654,35.3311067 L64.2664121,35.3311067 C64.5757133,35.3311067 64.6446368,35.3111701 64.8519769,35.2428163 L64.8519769,36.2607193 L59.0191133,36.2607193 Z" id="Fill-37" fill="#FFFFFF"></path>
                    <path d="M59.0191133,36.2607193 C59.0703787,36.0408477 59.0886064,35.896735 59.0886064,35.7247111 L59.0886064,25.3041635 C59.0886064,25.1133423 59.0703787,24.9925838 59.0191133,24.7527756 L61.0737167,24.7527756 C61.0207425,24.9584068 61.003654,25.0979627 61.003654,25.3041635 L61.003654,35.3311067 L64.2664121,35.3311067 C64.5757133,35.3311067 64.6446368,35.3111701 64.8519769,35.2428163 L64.8519769,36.2607193 L59.0191133,36.2607193 Z" id="Stroke-39" stroke="#000000" stroke-width="0.25" fill="#000000"></path>
                    <path d="M71.1827415,35.7587741 L71.1827415,35.8271279 C71.19983,36.138138 71.19983,36.138138 71.19983,36.2606054 L70.1642688,36.2606054 C70.2502808,35.9695318 70.2855969,35.8624441 70.3197739,35.7245971 L71.9619756,25.254493 L71.9619756,25.0779122 L71.9619756,24.7526617 L73.6839235,24.7526617 C73.7032905,24.9588625 73.7186701,25.0591149 73.7545559,25.2003795 L76.827632,34.1382177 L79.9143788,25.1474053 C79.949695,25.0591149 79.9673531,24.9742422 79.9673531,24.8517748 L79.9673531,24.7526617 L81.7109464,24.7526617 L81.7109464,24.8700025 L81.7109464,24.9924699 L81.7109464,25.1474053 L83.2255542,35.7587741 C83.2437819,35.8812414 83.2796677,35.9695318 83.3662493,36.2606054 L81.3133547,36.2606054 C81.3486709,36.138138 81.3486709,36.0885815 81.3486709,35.9991518 C81.3486709,35.9495953 81.3486709,35.8624441 81.3304432,35.792951 L80.1222885,27.2020087 L77.1893379,35.7587741 C77.135794,35.9154184 77.1027563,36.0544046 77.1027563,36.172315 L77.1027563,36.2606054 L75.4787823,36.2606054 L75.4787823,36.1586442 C75.4787823,36.0544046 75.4616938,35.930798 75.4075803,35.8271279 L72.5099458,27.4065007 L71.1827415,35.7587741 Z" id="Fill-41" fill="#FFFFFF"></path>
                    <path d="M71.1827415,35.7587741 L71.1827415,35.8271279 C71.19983,36.138138 71.19983,36.138138 71.19983,36.2606054 L70.1642688,36.2606054 C70.2502808,35.9695318 70.2855969,35.8624441 70.3197739,35.7245971 L71.9619756,25.254493 L71.9619756,25.0779122 L71.9619756,24.7526617 L73.6839235,24.7526617 C73.7032905,24.9588625 73.7186701,25.0591149 73.7545559,25.2003795 L76.827632,34.1382177 L79.9143788,25.1474053 C79.949695,25.0591149 79.9673531,24.9742422 79.9673531,24.8517748 L79.9673531,24.7526617 L81.7109464,24.7526617 L81.7109464,24.8700025 L81.7109464,24.9924699 L81.7109464,25.1474053 L83.2255542,35.7587741 C83.2437819,35.8812414 83.2796677,35.9695318 83.3662493,36.2606054 L81.3133547,36.2606054 C81.3486709,36.138138 81.3486709,36.0885815 81.3486709,35.9991518 C81.3486709,35.9495953 81.3486709,35.8624441 81.3304432,35.792951 L80.1222885,27.2020087 L77.1893379,35.7587741 C77.135794,35.9154184 77.1027563,36.0544046 77.1027563,36.172315 L77.1027563,36.2606054 L75.4787823,36.2606054 L75.4787823,36.1586442 C75.4787823,36.0544046 75.4616938,35.930798 75.4075803,35.8271279 L72.5099458,27.4065007 L71.1827415,35.7587741 Z" id="Stroke-43" stroke="#000000" stroke-width="0.25" fill="#000000"></path>
                    <path d="M94.1827936,24.7524908 C94.1315282,24.9586917 94.1138701,25.0595136 94.1138701,25.3038787 L94.1138701,32.4445797 C94.1138701,35.0181029 92.4562888,36.4313192 89.4743512,36.4313192 C87.7472767,36.4313192 86.6091847,35.9847406 85.8305202,34.9856348 C85.2973601,34.3288681 85.0210965,33.4624827 85.0210965,32.5362878 L85.0210965,25.3038787 C85.0210965,25.1136271 85.0022992,24.9740713 84.9516034,24.7524908 L87.0056372,24.7524908 C86.9543718,24.9740713 86.9372833,25.0982475 86.9372833,25.3038787 L86.9372833,32.5704647 C86.9372833,34.4171585 88.0770841,35.5017066 90.0069417,35.5017066 C92.0797728,35.5017066 93.2526113,34.363045 93.2526113,32.3084416 L93.2526113,25.3038787 C93.2526113,25.0595136 93.2349533,24.9381855 93.1814094,24.7524908 L94.1827936,24.7524908 Z" id="Fill-45" fill="#FFFFFF"></path>
                    <path d="M94.1827936,24.7524908 C94.1315282,24.9586917 94.1138701,25.0595136 94.1138701,25.3038787 L94.1138701,32.4445797 C94.1138701,35.0181029 92.4562888,36.4313192 89.4743512,36.4313192 C87.7472767,36.4313192 86.6091847,35.9847406 85.8305202,34.9856348 C85.2973601,34.3288681 85.0210965,33.4624827 85.0210965,32.5362878 L85.0210965,25.3038787 C85.0210965,25.1136271 85.0022992,24.9740713 84.9516034,24.7524908 L87.0056372,24.7524908 C86.9543718,24.9740713 86.9372833,25.0982475 86.9372833,25.3038787 L86.9372833,32.5704647 C86.9372833,34.4171585 88.0770841,35.5017066 90.0069417,35.5017066 C92.0797728,35.5017066 93.2526113,34.363045 93.2526113,32.3084416 L93.2526113,25.3038787 C93.2526113,25.0595136 93.2349533,24.9381855 93.1814094,24.7524908 L94.1827936,24.7524908 Z" id="Stroke-47" stroke="#000000" stroke-width="0.25" fill="#000000"></path>
                    <path d="M96.4936671,36.2607193 C96.5437932,36.0408477 96.5625906,35.896735 96.5625906,35.7247111 L96.5625906,25.3041635 C96.5625906,25.1133423 96.5437932,24.9925838 96.4936671,24.7527756 L98.5454224,24.7527756 C98.4970051,24.9584068 98.4782078,25.0979627 98.4782078,25.3041635 L98.4782078,35.3311067 L101.738118,35.3311067 C102.051976,35.3311067 102.117482,35.3111701 102.326531,35.2428163 L102.326531,36.2607193 L96.4936671,36.2607193 Z" id="Fill-49" fill="#FFFFFF"></path>
                    <path d="M96.4936671,36.2607193 C96.5437932,36.0408477 96.5625906,35.896735 96.5625906,35.7247111 L96.5625906,25.3041635 C96.5625906,25.1133423 96.5437932,24.9925838 96.4936671,24.7527756 L98.5454224,24.7527756 C98.4970051,24.9584068 98.4782078,25.0979627 98.4782078,25.3041635 L98.4782078,35.3311067 L101.738118,35.3311067 C102.051976,35.3311067 102.117482,35.3111701 102.326531,35.2428163 L102.326531,36.2607193 L96.4936671,36.2607193 Z" id="Stroke-51" stroke="#000000" stroke-width="0.25" fill="#000000"></path>
                    <path d="M103.687741,36.2607193 C103.739576,36.0408477 103.756665,35.896735 103.756665,35.7247111 L103.756665,25.3041635 C103.756665,25.1133423 103.739576,24.9925838 103.687741,24.7527756 L105.741205,24.7527756 C105.688801,24.9584068 105.671712,25.0979627 105.671712,25.3041635 L105.671712,35.3311067 L108.93447,35.3311067 C109.24548,35.3311067 109.314973,35.3111701 109.521174,35.2428163 L109.521174,36.2607193 L103.687741,36.2607193 Z" id="Fill-53" fill="#FFFFFF"></path>
                    <path d="M103.687741,36.2607193 C103.739576,36.0408477 103.756665,35.896735 103.756665,35.7247111 L103.756665,25.3041635 C103.756665,25.1133423 103.739576,24.9925838 103.687741,24.7527756 L105.741205,24.7527756 C105.688801,24.9584068 105.671712,25.0979627 105.671712,25.3041635 L105.671712,35.3311067 L108.93447,35.3311067 C109.24548,35.3311067 109.314973,35.3111701 109.521174,35.2428163 L109.521174,36.2607193 L103.687741,36.2607193 Z" id="Stroke-55" stroke="#000000" stroke-width="0.25" fill="#000000"></path>
                    <path d="M116.505117,31.8064963 L114.643044,26.6161591 L112.829388,31.8064963 L116.505117,31.8064963 Z M111.434969,35.7789954 C111.382564,35.9493105 111.363767,36.0546894 111.363767,36.2608902 L110.275231,36.2608902 C110.397129,36.070069 110.450673,35.9493105 110.517888,35.7789954 L114.279629,25.1659178 C114.332034,24.9927547 114.349122,24.9044642 114.36735,24.7523769 L116.023222,24.7523769 C116.040311,24.8902239 116.057399,24.9739573 116.110373,25.1323105 L119.992873,35.7789954 C120.060658,35.9493105 120.114771,36.040449 120.269137,36.2608902 L118.022573,36.2608902 C118.022573,36.070069 118.007763,35.9851963 117.939979,35.7789954 L116.831507,32.6540843 L112.553694,32.6540843 L111.434969,35.7789954 Z" id="Fill-57" fill="#FFFFFF"></path>
                    <path d="M116.505117,31.8064963 L114.643044,26.6161591 L112.829388,31.8064963 L116.505117,31.8064963 Z M111.434969,35.7789954 C111.382564,35.9493105 111.363767,36.0546894 111.363767,36.2608902 L110.275231,36.2608902 C110.397129,36.070069 110.450673,35.9493105 110.517888,35.7789954 L114.279629,25.1659178 C114.332034,24.9927547 114.349122,24.9044642 114.36735,24.7523769 L116.023222,24.7523769 C116.040311,24.8902239 116.057399,24.9739573 116.110373,25.1323105 L119.992873,35.7789954 C120.060658,35.9493105 120.114771,36.040449 120.269137,36.2608902 L118.022573,36.2608902 C118.022573,36.070069 118.007763,35.9851963 117.939979,35.7789954 L116.831507,32.6540843 L112.553694,32.6540843 L111.434969,35.7789954 Z" id="Stroke-59" stroke="#000000" stroke-width="0.25" fill="#000000"></path>
                    <path d="M128.290008,24.7524908 C128.237603,24.9381855 128.222793,25.0435644 128.222793,25.3038787 L128.222793,35.7107555 C128.222793,35.9693609 128.237603,36.0701829 128.290008,36.2604345 L126.236544,36.2604345 C126.288948,36.0405629 126.306037,35.8964502 126.306037,35.7107555 L126.306037,25.3038787 C126.306037,25.1136271 126.288948,24.9740713 126.236544,24.7524908 L128.290008,24.7524908 Z" id="Fill-61" fill="#FFFFFF"></path>
                    <path d="M128.290008,24.7524908 C128.237603,24.9381855 128.222793,25.0435644 128.222793,25.3038787 L128.222793,35.7107555 C128.222793,35.9693609 128.237603,36.0701829 128.290008,36.2604345 L126.236544,36.2604345 C126.288948,36.0405629 126.306037,35.8964502 126.306037,35.7107555 L126.306037,25.3038787 C126.306037,25.1136271 126.288948,24.9740713 126.236544,24.7524908 L128.290008,24.7524908 Z" id="Stroke-63" stroke="#000000" stroke-width="0.25" fill="#000000"></path>
                    <path d="M131.739543,35.7106985 C131.739543,35.9305701 131.75834,36.0547463 131.808466,36.2609472 L130.790563,36.2609472 C130.84069,36.0405059 130.860056,35.8963932 130.860056,35.7106985 L130.860056,25.3043914 C130.860056,25.0981905 130.84069,24.9740143 130.790563,24.7524338 L132.620738,24.7524338 C132.656054,24.9045212 132.673143,24.9386981 132.826939,25.1477471 L139.106951,33.9443206 L139.106951,25.3043914 C139.106951,25.0981905 139.087584,24.9586347 139.040306,24.7524338 L140.057639,24.7524338 C140.003526,24.9386981 139.988716,25.0298366 139.988716,25.3043914 L139.988716,35.7403185 C139.988716,36.0205694 140.003526,36.0889233 140.073019,36.2609472 L138.400628,36.2609472 L138.331134,36.1043029 C138.27816,36.0205694 138.210376,35.9305701 138.141452,35.8269001 L131.739543,26.8765304 L131.739543,35.7106985 Z" id="Fill-65" fill="#FFFFFF"></path>
                    <path d="M131.739543,35.7106985 C131.739543,35.9305701 131.75834,36.0547463 131.808466,36.2609472 L130.790563,36.2609472 C130.84069,36.0405059 130.860056,35.8963932 130.860056,35.7106985 L130.860056,25.3043914 C130.860056,25.0981905 130.84069,24.9740143 130.790563,24.7524338 L132.620738,24.7524338 C132.656054,24.9045212 132.673143,24.9386981 132.826939,25.1477471 L139.106951,33.9443206 L139.106951,25.3043914 C139.106951,25.0981905 139.087584,24.9586347 139.040306,24.7524338 L140.057639,24.7524338 C140.003526,24.9386981 139.988716,25.0298366 139.988716,25.3043914 L139.988716,35.7403185 C139.988716,36.0205694 140.003526,36.0889233 140.073019,36.2609472 L138.400628,36.2609472 L138.331134,36.1043029 C138.27816,36.0205694 138.210376,35.9305701 138.141452,35.8269001 L131.739543,26.8765304 L131.739543,35.7106985 Z" id="Stroke-67" stroke="#000000" stroke-width="0.25" fill="#000000"></path>
                    <path d="M142.108142,34.1768946 C143.212626,35.1606207 143.834077,35.4289097 144.834891,35.4289097 C146.130197,35.4289097 147.023924,34.6246125 147.023924,33.4472171 C147.023924,32.774501 146.769875,32.2743786 146.199121,31.8608376 C145.956464,31.6905226 145.458051,31.4267906 144.52502,30.9807816 C142.557568,30.0483208 141.797701,29.1523155 141.797701,27.7522004 C141.797701,25.8679121 143.349334,24.5777327 145.609569,24.5777327 C146.563105,24.5777327 147.284238,24.7526047 148.286192,25.2003226 L147.926765,26.4244265 C146.994874,25.7562674 146.283424,25.4896873 145.508177,25.4896873 C144.420211,25.4896873 143.610218,26.2182256 143.610218,27.2019518 C143.610218,28.1503617 144.057366,28.5838392 145.99235,29.4610472 C147.203353,30.0187008 147.805437,30.4242671 148.216129,30.9807816 C148.648468,31.5310302 148.856377,32.1906451 148.856377,32.9129176 C148.856377,34.0156934 148.323217,35.0865707 147.45968,35.7245402 C146.835951,36.172258 145.922287,36.4308635 144.904384,36.4308635 C143.749774,36.4308635 142.902755,36.1927642 141.712828,35.5542251 L142.108142,34.1768946 Z" id="Fill-69" fill="#FFFFFF"></path>
                    <path d="M142.108142,34.1768946 C143.212626,35.1606207 143.834077,35.4289097 144.834891,35.4289097 C146.130197,35.4289097 147.023924,34.6246125 147.023924,33.4472171 C147.023924,32.774501 146.769875,32.2743786 146.199121,31.8608376 C145.956464,31.6905226 145.458051,31.4267906 144.52502,30.9807816 C142.557568,30.0483208 141.797701,29.1523155 141.797701,27.7522004 C141.797701,25.8679121 143.349334,24.5777327 145.609569,24.5777327 C146.563105,24.5777327 147.284238,24.7526047 148.286192,25.2003226 L147.926765,26.4244265 C146.994874,25.7562674 146.283424,25.4896873 145.508177,25.4896873 C144.420211,25.4896873 143.610218,26.2182256 143.610218,27.2019518 C143.610218,28.1503617 144.057366,28.5838392 145.99235,29.4610472 C147.203353,30.0187008 147.805437,30.4242671 148.216129,30.9807816 C148.648468,31.5310302 148.856377,32.1906451 148.856377,32.9129176 C148.856377,34.0156934 148.323217,35.0865707 147.45968,35.7245402 C146.835951,36.172258 145.922287,36.4308635 144.904384,36.4308635 C143.749774,36.4308635 142.902755,36.1927642 141.712828,35.5542251 L142.108142,34.1768946 Z" id="Stroke-71" stroke="#000000" stroke-width="0.25" fill="#000000"></path>
                    <path d="M159.657884,24.7524908 C159.606618,24.9586917 159.58896,25.0595136 159.58896,25.3038787 L159.58896,32.4445797 C159.58896,35.0181029 157.931949,36.4313192 154.945454,36.4313192 C153.219519,36.4313192 152.081997,35.9847406 151.307319,34.9856348 C150.770172,34.3288681 150.493908,33.4624827 150.493908,32.5362878 L150.493908,25.3038787 C150.493908,25.1136271 150.47682,24.9740713 150.424985,24.7524908 L152.478449,24.7524908 C152.427184,24.9740713 152.408956,25.0982475 152.408956,25.3038787 L152.408956,32.5704647 C152.408956,34.4171585 153.547617,35.5017066 155.480323,35.5017066 C157.551445,35.5017066 158.727702,34.363045 158.727702,32.3084416 L158.727702,25.3038787 C158.727702,25.0595136 158.708904,24.9381855 158.657639,24.7524908 L159.657884,24.7524908 Z" id="Fill-73" fill="#FFFFFF"></path>
                    <path d="M159.657884,24.7524908 C159.606618,24.9586917 159.58896,25.0595136 159.58896,25.3038787 L159.58896,32.4445797 C159.58896,35.0181029 157.931949,36.4313192 154.945454,36.4313192 C153.219519,36.4313192 152.081997,35.9847406 151.307319,34.9856348 C150.770172,34.3288681 150.493908,33.4624827 150.493908,32.5362878 L150.493908,25.3038787 C150.493908,25.1136271 150.47682,24.9740713 150.424985,24.7524908 L152.478449,24.7524908 C152.427184,24.9740713 152.408956,25.0982475 152.408956,25.3038787 L152.408956,32.5704647 C152.408956,34.4171585 153.547617,35.5017066 155.480323,35.5017066 C157.551445,35.5017066 158.727702,34.363045 158.727702,32.3084416 L158.727702,25.3038787 C158.727702,25.0595136 158.708904,24.9381855 158.657639,24.7524908 L159.657884,24.7524908 Z" id="Stroke-75" stroke="#000000" stroke-width="0.25" fill="#000000"></path>
                    <path d="M164.846455,30.2742873 C166.196444,30.2742873 167.128905,29.3247382 167.128905,27.9627873 C167.128905,27.2359578 166.833274,26.512546 166.351949,26.0955874 C165.954358,25.7566661 165.471893,25.5954649 164.764431,25.5954649 L163.952728,25.5954649 L163.952728,30.2742873 L164.846455,30.2742873 Z M163.970956,35.7106985 C163.970956,35.9151905 163.986905,36.0405059 164.037031,36.2609472 L161.968188,36.2609472 C162.018883,36.0547463 162.037681,35.9305701 162.037681,35.7106985 L162.037681,25.3043914 C162.037681,25.1323674 162.018883,24.9928116 161.968188,24.7524338 L165.471893,24.7524338 C167.609091,24.7524338 169.078129,26.0135628 169.078129,27.8744969 C169.078129,29.1185373 168.422502,30.04815 167.247955,30.4987159 C166.86916,30.6525121 166.592327,30.7202964 165.971446,30.8427637 L169.750276,35.8132293 C169.975844,36.0889233 169.991223,36.1242394 170.216221,36.2609472 L167.697381,36.2609472 C167.626179,36.0547463 167.575484,35.9493674 167.454725,35.7585462 L163.970956,30.9264972 L163.970956,35.7106985 Z" id="Fill-77" fill="#FFFFFF"></path>
                    <path d="M164.846455,30.2742873 C166.196444,30.2742873 167.128905,29.3247382 167.128905,27.9627873 C167.128905,27.2359578 166.833274,26.512546 166.351949,26.0955874 C165.954358,25.7566661 165.471893,25.5954649 164.764431,25.5954649 L163.952728,25.5954649 L163.952728,30.2742873 L164.846455,30.2742873 Z M163.970956,35.7106985 C163.970956,35.9151905 163.986905,36.0405059 164.037031,36.2609472 L161.968188,36.2609472 C162.018883,36.0547463 162.037681,35.9305701 162.037681,35.7106985 L162.037681,25.3043914 C162.037681,25.1323674 162.018883,24.9928116 161.968188,24.7524338 L165.471893,24.7524338 C167.609091,24.7524338 169.078129,26.0135628 169.078129,27.8744969 C169.078129,29.1185373 168.422502,30.04815 167.247955,30.4987159 C166.86916,30.6525121 166.592327,30.7202964 165.971446,30.8427637 L169.750276,35.8132293 C169.975844,36.0889233 169.991223,36.1242394 170.216221,36.2609472 L167.697381,36.2609472 C167.626179,36.0547463 167.575484,35.9493674 167.454725,35.7585462 L163.970956,30.9264972 L163.970956,35.7106985 Z" id="Stroke-79" stroke="#000000" stroke-width="0.25" fill="#000000"></path>
                    <path d="M176.271862,31.8064963 L174.409788,26.6161591 L172.596702,31.8064963 L176.271862,31.8064963 Z M171.197726,35.7789954 C171.148169,35.9493105 171.130511,36.0546894 171.130511,36.2608902 L170.041976,36.2608902 C170.163874,36.070069 170.216278,35.9493105 170.284632,35.7789954 L174.044665,25.1659178 C174.098778,24.9927547 174.112449,24.9044642 174.131246,24.7523769 L175.787688,24.7523769 C175.804777,24.8902239 175.821865,24.9739573 175.875409,25.1323105 L179.757909,35.7789954 C179.827402,35.9493105 179.878098,36.040449 180.034173,36.2608902 L177.789318,36.2608902 C177.789318,36.070069 177.774508,35.9851963 177.703306,35.7789954 L176.599391,32.6540843 L172.320438,32.6540843 L171.197726,35.7789954 Z" id="Fill-81" fill="#FFFFFF"></path>
                    <path d="M176.271862,31.8064963 L174.409788,26.6161591 L172.596702,31.8064963 L176.271862,31.8064963 Z M171.197726,35.7789954 C171.148169,35.9493105 171.130511,36.0546894 171.130511,36.2608902 L170.041976,36.2608902 C170.163874,36.070069 170.216278,35.9493105 170.284632,35.7789954 L174.044665,25.1659178 C174.098778,24.9927547 174.112449,24.9044642 174.131246,24.7523769 L175.787688,24.7523769 C175.804777,24.8902239 175.821865,24.9739573 175.875409,25.1323105 L179.757909,35.7789954 C179.827402,35.9493105 179.878098,36.040449 180.034173,36.2608902 L177.789318,36.2608902 C177.789318,36.070069 177.774508,35.9851963 177.703306,35.7789954 L176.599391,32.6540843 L172.320438,32.6540843 L171.197726,35.7789954 Z" id="Stroke-83" stroke="#000000" stroke-width="0.25" fill="#000000"></path>
                    <path d="M182.119649,35.7106985 C182.119649,35.9305701 182.136738,36.0547463 182.190282,36.2609472 L181.171809,36.2609472 C181.224213,36.0405059 181.240163,35.8963932 181.240163,35.7106985 L181.240163,25.3043914 C181.240163,25.0981905 181.224213,24.9740143 181.171809,24.7524338 L183.001414,24.7524338 C183.035591,24.9045212 183.05211,24.9386981 183.206476,25.1477471 L189.488766,33.9443206 L189.488766,25.3043914 C189.488766,25.0981905 189.471108,24.9586347 189.419843,24.7524338 L190.437176,24.7524338 C190.385341,24.9386981 190.367683,25.0298366 190.367683,25.3043914 L190.367683,35.7403185 C190.367683,36.0205694 190.385341,36.0889233 190.454834,36.2609472 L188.780734,36.2609472 L188.71181,36.1043029 C188.659406,36.0205694 188.591052,35.9305701 188.522128,35.8269001 L182.119649,26.8765304 L182.119649,35.7106985 Z" id="Fill-85" fill="#FFFFFF"></path>
                    <path d="M182.119649,35.7106985 C182.119649,35.9305701 182.136738,36.0547463 182.190282,36.2609472 L181.171809,36.2609472 C181.224213,36.0405059 181.240163,35.8963932 181.240163,35.7106985 L181.240163,25.3043914 C181.240163,25.0981905 181.224213,24.9740143 181.171809,24.7524338 L183.001414,24.7524338 C183.035591,24.9045212 183.05211,24.9386981 183.206476,25.1477471 L189.488766,33.9443206 L189.488766,25.3043914 C189.488766,25.0981905 189.471108,24.9586347 189.419843,24.7524338 L190.437176,24.7524338 C190.385341,24.9386981 190.367683,25.0298366 190.367683,25.3043914 L190.367683,35.7403185 C190.367683,36.0205694 190.385341,36.0889233 190.454834,36.2609472 L188.780734,36.2609472 L188.71181,36.1043029 C188.659406,36.0205694 188.591052,35.9305701 188.522128,35.8269001 L182.119649,26.8765304 L182.119649,35.7106985 Z" id="Stroke-87" stroke="#000000" stroke-width="0.25" fill="#000000"></path>
                    <path d="M200.925223,26.6519879 C199.90732,25.8043999 199.216376,25.524149 198.184233,25.524149 C195.819189,25.524149 194.368948,27.4067286 194.368948,30.4587289 C194.368948,33.482818 195.885264,35.449131 198.235498,35.449131 C199.268781,35.449131 199.961433,35.1403994 200.925223,34.2250271 L200.925223,35.7402046 C199.837257,36.2608332 199.095618,36.4311483 197.922779,36.4311483 C194.297746,36.4311483 192.317192,34.3087606 192.317192,30.4245519 C192.317192,26.6861648 194.43901,24.5774479 198.201321,24.5774479 C199.251692,24.5774479 199.99561,24.718143 200.925223,25.0980766 L200.925223,26.6519879 Z" id="Fill-89" fill="#FFFFFF"></path>
                    <path d="M200.925223,26.6519879 C199.90732,25.8043999 199.216376,25.524149 198.184233,25.524149 C195.819189,25.524149 194.368948,27.4067286 194.368948,30.4587289 C194.368948,33.482818 195.885264,35.449131 198.235498,35.449131 C199.268781,35.449131 199.961433,35.1403994 200.925223,34.2250271 L200.925223,35.7402046 C199.837257,36.2608332 199.095618,36.4311483 197.922779,36.4311483 C194.297746,36.4311483 192.317192,34.3087606 192.317192,30.4245519 C192.317192,26.6861648 194.43901,24.5774479 198.201321,24.5774479 C199.251692,24.5774479 199.99561,24.718143 200.925223,25.0980766 L200.925223,26.6519879 Z" id="Stroke-91" stroke="#000000" stroke-width="0.25" fill="#000000"></path>
                    <path d="M208.502762,24.7524908 L208.502762,25.6821034 C208.274916,25.6137496 208.190043,25.5955219 207.969602,25.5955219 L204.530263,25.5955219 L204.530263,29.9969415 L207.878463,29.9969415 C208.207132,29.9969415 208.257827,29.9969415 208.517003,29.9285876 L208.517003,30.8582003 C208.292004,30.8040868 208.225359,30.8040868 207.895552,30.8040868 L204.530263,30.8040868 L204.530263,35.3313915 L207.861375,35.3313915 C208.067576,35.3313915 208.207132,35.3108853 208.517003,35.2425315 L208.517003,36.2604345 L202.544014,36.2604345 C202.598127,36.0548033 202.618633,35.9306271 202.618633,35.7107555 L202.618633,25.3038787 C202.618633,25.0595136 202.598127,24.9586917 202.544014,24.7524908 L208.502762,24.7524908 Z" id="Fill-93" fill="#FFFFFF"></path>
                    <path d="M208.502762,24.7524908 L208.502762,25.6821034 C208.274916,25.6137496 208.190043,25.5955219 207.969602,25.5955219 L204.530263,25.5955219 L204.530263,29.9969415 L207.878463,29.9969415 C208.207132,29.9969415 208.257827,29.9969415 208.517003,29.9285876 L208.517003,30.8582003 C208.292004,30.8040868 208.225359,30.8040868 207.895552,30.8040868 L204.530263,30.8040868 L204.530263,35.3313915 L207.861375,35.3313915 C208.067576,35.3313915 208.207132,35.3108853 208.517003,35.2425315 L208.517003,36.2604345 L202.544014,36.2604345 C202.598127,36.0548033 202.618633,35.9306271 202.618633,35.7107555 L202.618633,25.3038787 C202.618633,25.0595136 202.598127,24.9586917 202.544014,24.7524908 L208.502762,24.7524908 Z" id="Stroke-95" stroke="#000000" stroke-width="0.25" fill="#000000"></path>
                    <path d="M218.326068,35.1786776 C219.750107,35.1786776 220.463835,34.4461519 220.463835,32.9548983 C220.463835,32.1021838 220.20466,31.4226324 219.701689,31.0210534 C219.228908,30.6388413 218.744735,30.5009944 217.802591,30.5009944 L216.953294,30.5009944 L216.953294,35.1786776 L218.326068,35.1786776 Z M217.78892,29.6830264 C219.492641,29.6830264 220.273583,28.9505007 220.273583,27.3510202 C220.273583,26.0112843 219.578652,25.3334417 218.18879,25.3334417 L216.953294,25.3334417 L216.953294,29.6830264 L217.78892,29.6830264 Z M218.863215,24.464778 C220.985603,24.464778 222.206859,25.5066049 222.206859,27.3356405 C222.206859,28.3273413 221.752875,29.1424612 220.968514,29.5799259 C220.652947,29.7513802 220.431367,29.8373922 219.854916,30.0111249 C221.563763,30.3090339 222.429009,31.2978866 222.429009,32.9002152 C222.429009,34.7617189 221.077881,36.065569 219.107011,36.065569 L214.951095,36.065569 C215.005779,35.8582289 215.022867,35.7329135 215.022867,35.4908269 L215.022867,25.0212924 C215.022867,24.7740792 215.005779,24.6726877 214.951095,24.464778 L218.863215,24.464778 Z" id="Fill-97" fill="#FFFFFF"></path>
                    <path d="M218.326068,35.1786776 C219.750107,35.1786776 220.463835,34.4461519 220.463835,32.9548983 C220.463835,32.1021838 220.20466,31.4226324 219.701689,31.0210534 C219.228908,30.6388413 218.744735,30.5009944 217.802591,30.5009944 L216.953294,30.5009944 L216.953294,35.1786776 L218.326068,35.1786776 Z M217.78892,29.6830264 C219.492641,29.6830264 220.273583,28.9505007 220.273583,27.3510202 C220.273583,26.0112843 219.578652,25.3334417 218.18879,25.3334417 L216.953294,25.3334417 L216.953294,29.6830264 L217.78892,29.6830264 Z M218.863215,24.464778 C220.985603,24.464778 222.206859,25.5066049 222.206859,27.3356405 C222.206859,28.3273413 221.752875,29.1424612 220.968514,29.5799259 C220.652947,29.7513802 220.431367,29.8373922 219.854916,30.0111249 C221.563763,30.3090339 222.429009,31.2978866 222.429009,32.9002152 C222.429009,34.7617189 221.077881,36.065569 219.107011,36.065569 L214.951095,36.065569 C215.005779,35.8582289 215.022867,35.7329135 215.022867,35.4908269 L215.022867,25.0212924 C215.022867,24.7740792 215.005779,24.6726877 214.951095,24.464778 L218.863215,24.464778 Z" id="Stroke-99" stroke="#000000" stroke-width="0.25" fill="#000000"></path>
                    <path d="M227.368658,30.0311754 C228.726052,30.0311754 229.664209,29.0736516 229.664209,27.700878 C229.664209,26.9683524 229.370857,26.2392445 228.883266,25.8188681 C228.483396,25.4770988 227.994666,25.3147584 227.280937,25.3147584 L226.461261,25.3147584 L226.461261,30.0311754 L227.368658,30.0311754 Z M226.481767,35.511447 C226.481767,35.7176478 226.501703,35.8441025 226.550121,36.0656829 L224.460771,36.0656829 C224.517163,35.8577733 224.534251,35.7330274 224.534251,35.511447 L224.534251,25.0208367 C224.534251,24.8476736 224.517163,24.7069785 224.460771,24.4648919 L227.994666,24.4648919 C230.150091,24.4648919 231.632231,25.7362739 231.632231,27.612018 C231.632231,28.8663115 230.973186,29.8033292 229.790664,30.2578824 C229.405034,30.4122482 229.124214,30.4806021 228.497636,30.6042087 L232.310073,35.6145474 C232.536211,35.8925198 232.553869,35.9284056 232.778297,36.0656829 L230.238951,36.0656829 C230.171737,35.8577733 230.118762,35.7518248 229.992308,35.5598643 L226.481767,30.6885118 L226.481767,35.511447 Z" id="Fill-101" fill="#FFFFFF"></path>
                    <path d="M227.368658,30.0311754 C228.726052,30.0311754 229.664209,29.0736516 229.664209,27.700878 C229.664209,26.9683524 229.370857,26.2392445 228.883266,25.8188681 C228.483396,25.4770988 227.994666,25.3147584 227.280937,25.3147584 L226.461261,25.3147584 L226.461261,30.0311754 L227.368658,30.0311754 Z M226.481767,35.511447 C226.481767,35.7176478 226.501703,35.8441025 226.550121,36.0656829 L224.460771,36.0656829 C224.517163,35.8577733 224.534251,35.7330274 224.534251,35.511447 L224.534251,25.0208367 C224.534251,24.8476736 224.517163,24.7069785 224.460771,24.4648919 L227.994666,24.4648919 C230.150091,24.4648919 231.632231,25.7362739 231.632231,27.612018 C231.632231,28.8663115 230.973186,29.8033292 229.790664,30.2578824 C229.405034,30.4122482 229.124214,30.4806021 228.497636,30.6042087 L232.310073,35.6145474 C232.536211,35.8925198 232.553869,35.9284056 232.778297,36.0656829 L230.238951,36.0656829 C230.171737,35.8577733 230.118762,35.7518248 229.992308,35.5598643 L226.481767,30.6885118 L226.481767,35.511447 Z" id="Stroke-103" stroke="#000000" stroke-width="0.25" fill="#000000"></path>
                    <path d="M235.14767,30.1826362 C235.14767,33.6122916 236.362661,35.3382269 238.811438,35.3382269 C241.163381,35.3382269 242.433054,33.5638743 242.433054,30.2874455 C242.433054,26.9341185 241.181039,25.1928037 238.798906,25.1928037 C236.417344,25.1928037 235.14767,26.9341185 235.14767,30.1826362 M244.504176,30.2578255 C244.504176,34.0981737 242.451851,36.2376499 238.760173,36.2376499 C235.075899,36.2376499 233.076548,34.0981737 233.076548,30.1484593 C233.076548,26.4624768 235.199506,24.2888237 238.798906,24.2888237 C242.433054,24.2888237 244.504176,26.4624768 244.504176,30.2578255" id="Fill-105" fill="#FFFFFF"></path>
                    <path d="M235.14767,30.1826362 C235.14767,33.6122916 236.362661,35.3382269 238.811438,35.3382269 C241.163381,35.3382269 242.433054,33.5638743 242.433054,30.2874455 C242.433054,26.9341185 241.181039,25.1928037 238.798906,25.1928037 C236.417344,25.1928037 235.14767,26.9341185 235.14767,30.1826362 Z M244.504176,30.2578255 C244.504176,34.0981737 242.451851,36.2376499 238.760173,36.2376499 C235.075899,36.2376499 233.076548,34.0981737 233.076548,30.1484593 C233.076548,26.4624768 235.199506,24.2888237 238.798906,24.2888237 C242.433054,24.2888237 244.504176,26.4624768 244.504176,30.2578255 Z" id="Stroke-107" stroke="#000000" stroke-width="0.25" fill="#000000"></path>
                    <path d="M248.413391,35.5112761 C248.413391,35.7328566 248.433327,35.858172 248.483454,36.0655121 L246.417458,36.0655121 C246.465875,35.8439316 246.486381,35.6986796 246.486381,35.5112761 L246.486381,25.0212354 C246.486381,24.8133258 246.465875,24.6885799 246.417458,24.464721 L248.483454,24.464721 C248.433327,24.6726307 248.413391,24.7928196 248.413391,25.0212354 L248.413391,29.6140459 L252.136398,24.8475027 C252.209879,24.7444023 252.260005,24.6526942 252.346017,24.464721 L253.773474,24.464721 C253.580944,24.6037072 253.52626,24.6726307 253.357654,24.8816796 L249.806101,29.4220855 L254.365304,35.5938704 C254.433658,35.6986796 254.523088,35.80178 254.607391,35.9282347 L254.785111,36.0655121 L252.294182,36.0655121 C252.225258,35.8439316 252.191082,35.7516539 252.087981,35.6286169 L248.413391,30.565304 L248.413391,35.5112761 Z" id="Fill-109" fill="#FFFFFF"></path>
                    <path d="M248.413391,35.5112761 C248.413391,35.7328566 248.433327,35.858172 248.483454,36.0655121 L246.417458,36.0655121 C246.465875,35.8439316 246.486381,35.6986796 246.486381,35.5112761 L246.486381,25.0212354 C246.486381,24.8133258 246.465875,24.6885799 246.417458,24.464721 L248.483454,24.464721 C248.433327,24.6726307 248.413391,24.7928196 248.413391,25.0212354 L248.413391,29.6140459 L252.136398,24.8475027 C252.209879,24.7444023 252.260005,24.6526942 252.346017,24.464721 L253.773474,24.464721 C253.580944,24.6037072 253.52626,24.6726307 253.357654,24.8816796 L249.806101,29.4220855 L254.365304,35.5938704 C254.433658,35.6986796 254.523088,35.80178 254.607391,35.9282347 L254.785111,36.0655121 L252.294182,36.0655121 C252.225258,35.8439316 252.191082,35.7516539 252.087981,35.6286169 L248.413391,30.565304 L248.413391,35.5112761 Z" id="Stroke-111" stroke="#000000" stroke-width="0.25" fill="#000000"></path>
                    <path d="M261.717959,24.4650058 L261.717959,25.4020235 C261.492961,25.3336696 261.406949,25.3148723 261.179103,25.3148723 L257.718119,25.3148723 L257.718119,29.7516081 L261.096509,29.7516081 C261.424607,29.7516081 261.475873,29.7516081 261.736756,29.6826846 L261.736756,30.6197022 C261.510049,30.5655888 261.441696,30.5655888 261.110179,30.5655888 L257.718119,30.5655888 L257.718119,35.1287792 L261.076002,35.1287792 C261.283912,35.1287792 261.424607,35.1082731 261.736756,35.0399192 L261.736756,36.0657969 L255.71592,36.0657969 C255.770603,35.8578872 255.792818,35.7331414 255.792818,35.5115609 L255.792818,25.0209506 C255.792818,24.7743071 255.770603,24.6729155 255.71592,24.4650058 L261.717959,24.4650058 Z" id="Fill-113" fill="#FFFFFF"></path>
                    <path d="M261.717959,24.4650058 L261.717959,25.4020235 C261.492961,25.3336696 261.406949,25.3148723 261.179103,25.3148723 L257.718119,25.3148723 L257.718119,29.7516081 L261.096509,29.7516081 C261.424607,29.7516081 261.475873,29.7516081 261.736756,29.6826846 L261.736756,30.6197022 C261.510049,30.5655888 261.441696,30.5655888 261.110179,30.5655888 L257.718119,30.5655888 L257.718119,35.1287792 L261.076002,35.1287792 C261.283912,35.1287792 261.424607,35.1082731 261.736756,35.0399192 L261.736756,36.0657969 L255.71592,36.0657969 C255.770603,35.8578872 255.792818,35.7331414 255.792818,35.5115609 L255.792818,25.0209506 C255.792818,24.7743071 255.770603,24.6729155 255.71592,24.4650058 L261.717959,24.4650058 Z" id="Stroke-115" stroke="#000000" stroke-width="0.25" fill="#000000"></path>
                    <path d="M266.692127,30.0311754 C268.05066,30.0311754 268.992805,29.0736516 268.992805,27.700878 C268.992805,26.9683524 268.694326,26.2392445 268.205596,25.8188681 C267.802878,25.4770988 267.318135,25.3147584 266.609533,25.3147584 L265.789287,25.3147584 L265.789287,30.0311754 L266.692127,30.0311754 Z M265.805236,35.511447 C265.805236,35.7176478 265.825172,35.8441025 265.877007,36.0656829 L263.788797,36.0656829 C263.841771,35.8577733 263.859429,35.7330274 263.859429,35.511447 L263.859429,25.0208367 C263.859429,24.8476736 263.841771,24.7069785 263.788797,24.4648919 L267.318135,24.4648919 C269.475269,24.4648919 270.9557,25.7362739 270.9557,27.612018 C270.9557,28.8663115 270.292098,29.8033292 269.112994,30.2578824 C268.728503,30.4122482 268.450531,30.4806021 267.826232,30.6042087 L271.635251,35.6145474 C271.86025,35.8925198 271.880186,35.9284056 272.098918,36.0656829 L269.564129,36.0656829 C269.494066,35.8577733 269.441092,35.7518248 269.320903,35.5598643 L265.805236,30.6885118 L265.805236,35.511447 Z" id="Fill-117" fill="#FFFFFF"></path>
                    <path d="M266.692127,30.0311754 C268.05066,30.0311754 268.992805,29.0736516 268.992805,27.700878 C268.992805,26.9683524 268.694326,26.2392445 268.205596,25.8188681 C267.802878,25.4770988 267.318135,25.3147584 266.609533,25.3147584 L265.789287,25.3147584 L265.789287,30.0311754 L266.692127,30.0311754 Z M265.805236,35.511447 C265.805236,35.7176478 265.825172,35.8441025 265.877007,36.0656829 L263.788797,36.0656829 C263.841771,35.8577733 263.859429,35.7330274 263.859429,35.511447 L263.859429,25.0208367 C263.859429,24.8476736 263.841771,24.7069785 263.788797,24.4648919 L267.318135,24.4648919 C269.475269,24.4648919 270.9557,25.7362739 270.9557,27.612018 C270.9557,28.8663115 270.292098,29.8033292 269.112994,30.2578824 C268.728503,30.4122482 268.450531,30.4806021 267.826232,30.6042087 L271.635251,35.6145474 C271.86025,35.8925198 271.880186,35.9284056 272.098918,36.0656829 L269.564129,36.0656829 C269.494066,35.8577733 269.441092,35.7518248 269.320903,35.5598643 L265.805236,30.6885118 L265.805236,35.511447 Z" id="Stroke-119" stroke="#000000" stroke-width="0.25" fill="#000000"></path>
                    <path d="M278.205539,31.5756881 L276.333213,26.3437689 L274.501329,31.5756881 L278.205539,31.5756881 Z M273.0921,35.5800857 C273.040835,35.7515399 273.023746,35.8580581 273.023746,36.0659678 L271.931793,36.0659678 C272.047425,35.8734377 272.09926,35.7515399 272.171032,35.5800857 L275.962963,24.8821353 C276.014228,24.7072633 276.031317,24.6178337 276.048405,24.4651767 L277.718518,24.4651767 C277.743011,24.6041629 277.752695,24.688466 277.807378,24.8479584 L281.724055,35.5800857 C281.795826,35.7515399 281.844244,35.8438177 282.002027,36.0659678 L279.738944,36.0659678 C279.738944,35.8734377 279.713881,35.7879953 279.650084,35.5800857 L278.538195,32.4301115 L274.226205,32.4301115 L273.0921,35.5800857 Z" id="Fill-121" fill="#FFFFFF"></path>
                    <path d="M278.205539,31.5756881 L276.333213,26.3437689 L274.501329,31.5756881 L278.205539,31.5756881 Z M273.0921,35.5800857 C273.040835,35.7515399 273.023746,35.8580581 273.023746,36.0659678 L271.931793,36.0659678 C272.047425,35.8734377 272.09926,35.7515399 272.171032,35.5800857 L275.962963,24.8821353 C276.014228,24.7072633 276.031317,24.6178337 276.048405,24.4651767 L277.718518,24.4651767 C277.743011,24.6041629 277.752695,24.688466 277.807378,24.8479584 L281.724055,35.5800857 C281.795826,35.7515399 281.844244,35.8438177 282.002027,36.0659678 L279.738944,36.0659678 C279.738944,35.8734377 279.713881,35.7879953 279.650084,35.5800857 L278.538195,32.4301115 L274.226205,32.4301115 L273.0921,35.5800857 Z" id="Stroke-123" stroke="#000000" stroke-width="0.25" fill="#000000"></path>
                    <path d="M291.39607,26.3594903 C290.263675,25.5751296 289.359695,25.2646891 288.244387,25.2646891 C287.135346,25.2646891 286.193771,25.6645593 285.494283,26.4278442 C284.680303,27.3352418 284.315179,28.5331434 284.315179,30.3280021 C284.315179,33.4751282 285.687953,35.3007462 288.072933,35.3007462 C288.766155,35.3007462 289.219,35.1788484 289.862665,34.8131552 L289.862665,30.2716102 C289.862665,30.0454728 289.848425,29.9264231 289.793742,29.7173742 L291.813029,29.7173742 C291.761764,29.9423723 291.738409,30.0654093 291.738409,30.2716102 L291.738409,34.7413837 C291.738409,35.0740392 291.761764,35.1788484 291.859738,35.4363147 C289.759565,36.1158661 289.201911,36.2377638 287.865023,36.2377638 C286.090671,36.2377638 284.838086,35.7877675 283.862335,34.7915098 C282.797154,33.7012656 282.244057,32.1707085 282.244057,30.3092048 C282.244057,26.5719569 284.488342,24.288368 288.157236,24.288368 C289.287354,24.288368 290.126397,24.4461515 291.39607,24.9160844 L291.39607,26.3594903 Z" id="Fill-125" fill="#FFFFFF"></path>
                    <path d="M291.39607,26.3594903 C290.263675,25.5751296 289.359695,25.2646891 288.244387,25.2646891 C287.135346,25.2646891 286.193771,25.6645593 285.494283,26.4278442 C284.680303,27.3352418 284.315179,28.5331434 284.315179,30.3280021 C284.315179,33.4751282 285.687953,35.3007462 288.072933,35.3007462 C288.766155,35.3007462 289.219,35.1788484 289.862665,34.8131552 L289.862665,30.2716102 C289.862665,30.0454728 289.848425,29.9264231 289.793742,29.7173742 L291.813029,29.7173742 C291.761764,29.9423723 291.738409,30.0654093 291.738409,30.2716102 L291.738409,34.7413837 C291.738409,35.0740392 291.761764,35.1788484 291.859738,35.4363147 C289.759565,36.1158661 289.201911,36.2377638 287.865023,36.2377638 C286.090671,36.2377638 284.838086,35.7877675 283.862335,34.7915098 C282.797154,33.7012656 282.244057,32.1707085 282.244057,30.3092048 C282.244057,26.5719569 284.488342,24.288368 288.157236,24.288368 C289.287354,24.288368 290.126397,24.4461515 291.39607,24.9160844 L291.39607,26.3594903 Z" id="Stroke-127" stroke="#000000" stroke-width="0.25" fill="#000000"></path>
                    <path d="M299.98576,24.4650058 L299.98576,25.4020235 C299.759053,25.3336696 299.671901,25.3148723 299.448612,25.3148723 L295.985919,25.3148723 L295.985919,29.7516081 L299.359752,29.7516081 C299.68899,29.7516081 299.740825,29.7516081 300,29.6826846 L300,30.6197022 C299.776711,30.5655888 299.706078,30.5655888 299.376841,30.5655888 L295.985919,30.5655888 L295.985919,35.1287792 L299.342664,35.1287792 C299.551713,35.1287792 299.68899,35.1082731 300,35.0399192 L300,36.0657969 L293.98372,36.0657969 C294.033846,35.8578872 294.054353,35.7331414 294.054353,35.5115609 L294.054353,25.0209506 C294.054353,24.7743071 294.033846,24.6729155 293.98372,24.4650058 L299.98576,24.4650058 Z" id="Fill-129" fill="#FFFFFF"></path>
                    <path d="M299.98576,24.4650058 L299.98576,25.4020235 C299.759053,25.3336696 299.671901,25.3148723 299.448612,25.3148723 L295.985919,25.3148723 L295.985919,29.7516081 L299.359752,29.7516081 C299.68899,29.7516081 299.740825,29.7516081 300,29.6826846 L300,30.6197022 C299.776711,30.5655888 299.706078,30.5655888 299.376841,30.5655888 L295.985919,30.5655888 L295.985919,35.1287792 L299.342664,35.1287792 C299.551713,35.1287792 299.68899,35.1082731 300,35.0399192 L300,36.0657969 L293.98372,36.0657969 C294.033846,35.8578872 294.054353,35.7331414 294.054353,35.5115609 L294.054353,25.0209506 C294.054353,24.7743071 294.033846,24.6729155 293.98372,24.4650058 L299.98576,24.4650058 Z" id="Stroke-131" stroke="#000000" stroke-width="0.25" fill="#000000"></path>
                    <g id="Group-136" transform="translate(120.225390, 0.405127)">
                        <mask id="mask-2" fill="white">
                            <use xlink:href="#path-1"></use>
                        </mask>
                        <g id="Clip-135"></g>
                        <path d="M173.892417,3.61062232 C174.289439,3.12246176 175.20652,3.23866334 175.304494,3.8692278 C175.470822,4.9509278 173.484003,5.19814096 173.892417,3.61062232" id="Fill-134" fill="#000000" mask="url(#mask-2)"></path>
                    </g>
                    <g id="Group-139" transform="translate(250.303947, 3.915965)" fill="#000000">
                        <path d="M2.48659748,4.87071345 C2.24223239,4.92596616 2.09470196,5.14014162 1.89590612,5.06039544 C0.802813804,6.03614694 1.12692507,7.23404852 1.17420317,8.61365747 C2.24963739,8.62903709 3.23564198,8.67916326 4.39651854,8.59941708 C4.42727778,7.01018959 4.34525314,6.37677706 4.38740469,4.84280228 C3.85709258,4.87071345 3.06418768,4.73685379 2.48659748,4.87071345 M22.3354222,1.0354917 C21.4918215,1.92694009 20.5496774,2.89642582 19.7658863,3.88812656 C20.8925859,4.1233778 21.7304905,4.25438938 22.289853,5.03647158 C22.8606078,5.82709802 22.7586466,6.87860839 22.7472543,8.06739612 C22.7404189,8.67859365 22.8315574,9.29662656 22.676622,9.77453404 C16.4951536,9.85029291 9.97818168,9.7477621 4.04107842,9.71814209 C2.72355756,9.71187632 1.31660706,9.82693867 0.0389593014,9.67371208 C0.0811108549,7.6680956 -0.387113158,5.08488891 1.07964698,4.12223857 C2.09128426,3.45977564 3.91006683,3.7907223 5.42410506,3.73034304 C5.56252165,5.74108607 5.42410506,6.51747211 5.46796546,8.56296168 C5.71916594,8.73555521 6.08941607,8.62163209 6.39529964,8.62106247 C8.64812928,8.62163209 11.2284879,8.76346637 14.1039074,8.70422635 C16.3111678,8.66036595 19.2230427,8.75492214 21.7139716,8.68941634 C21.6866301,7.35366779 21.9458052,6.08399465 21.2132795,5.51323983 C20.35316,4.83995421 18.7565275,5.06552198 17.4629305,4.93564963 C18.0729888,4.02312545 18.8732987,3.28490365 19.5875966,2.47092298 C20.2944896,1.66434731 21.003661,0.857771638 21.7595409,0.103600601 C22.0295387,-0.0980433173 22.654407,0.0648667406 23.0793402,0.0204367248 C22.9882017,0.429990332 22.6253566,0.731886593 22.3354222,1.0354917 Z" id="Fill-137"></path>
                    </g>
                    <g id="Group-142" transform="translate(243.942544, 3.955777)" fill="#000000">
                        <path d="M1.0920012,0.0130362995 C1.30503743,0.0711370894 1.27769588,0.392969896 1.27940473,0.55246226 C1.29421474,1.16536863 1.20307624,1.71675652 1.21389894,2.35643482 C1.24124049,4.88097111 1.28339204,7.4094947 1.1831397,9.57802124 C0.908015368,9.73694399 0.297387459,9.68340012 0.0131492807,9.56435046 C0.0296681327,6.96690339 -0.0540653586,3.3094017 0.0661235303,0.0517701595 C0.313906311,-0.0359506409 0.918838064,0.0147451463 1.0920012,0.0130362995" id="Fill-140"></path>
                    </g>
                    <g id="Group-145" transform="translate(209.391829, 3.777184)" fill="#000000">
                        <path d="M1.19840385,0.0617567688 C1.26390965,1.46415034 1.23485925,2.85059468 1.20410001,3.91577583 C1.16536615,5.29367594 1.3134662,6.55765292 1.15853076,8.0625773 C0.770052931,8.16055119 0.476700904,8.11612117 0.0358184397,8.0990327 C-0.0171558099,5.18715782 -0.000636957862,3.32166677 0.0175907409,0.878015905 C0.0210084344,0.613714273 -0.0593073633,0.297577622 0.125248087,0.0497948415 C0.412903958,-0.00944517954 0.915874522,-0.0276728783 1.19840385,0.0617567688" id="Fill-143"></path>
                    </g>
                    <g id="Group-148" transform="translate(186.352104, 4.172608)" fill="#000000">
                        <path d="M1.73933778,4.9789662 C0.972065586,5.68699838 0.890040941,8.14261117 1.64990813,8.6370375 C2.1785114,8.9805157 2.8911005,8.71621407 3.65096769,8.80450449 C3.65267654,7.27565625 3.63273999,6.10509622 3.64527154,4.60928569 C2.89451819,4.57795683 2.20015679,4.55175451 1.73933778,4.9789662 M3.54331035,9.48576473 C2.77091161,9.37924661 1.35484726,9.36956315 0.673017403,8.72418869 C-0.190519827,7.90280301 -0.237797921,5.96497078 0.61662546,4.91744772 C1.48585885,3.85283619 3.04603594,3.97359469 4.7258323,4.03511318 C4.84829966,5.38738058 4.64950382,7.28306125 4.77368001,8.47583629 C5.46576295,8.54646863 6.39879328,8.49178553 7.50498675,8.5054563 C7.6673272,7.1862266 7.58188486,6.10851391 7.60011256,4.45662871 C7.60922641,3.64777458 7.60011256,2.86512276 7.57789755,2.11493903 C7.55283446,1.41146378 7.57106216,0.706279685 7.69637759,0.0666013812 C7.96637538,-0.0496001986 8.3873213,0.00736136015 8.71883757,0.0779936929 C8.72453373,2.84974314 8.70231872,6.15408316 8.72453373,8.46957052 C9.6957283,8.58178479 10.7455298,8.51570938 11.5560928,8.50089938 C11.6768513,6.20477895 11.5600801,3.4148018 11.6472313,0.0603356097 C12.0812784,0.0483736824 12.3706431,0.00280443545 12.7209567,0.0728671527 C12.7443109,3.16701902 12.8103863,5.82484535 12.6679824,9.53703013 C9.81933488,9.60424477 7.30106437,9.53304282 4.76285732,9.54842244 C4.46380913,9.91810296 4.29634215,10.5475282 3.82242198,10.8072729 C3.32457796,11.0795491 2.49920497,11.0932199 1.76838818,11.0767011 C1.47503615,11.0704353 1.13953257,11.1444853 0.891749788,10.9701829 C0.912255949,10.8198044 0.784092442,10.7355013 0.897445944,10.6289832 C0.979470589,10.3703777 1.31839186,10.4939843 1.48415,10.4877185 C2.49009113,10.4626555 3.34109681,10.4324658 3.54331035,9.48576473" id="Fill-146"></path>
                    </g>
                    <g id="Group-151" transform="translate(161.935404, 4.093164)" fill="#000000">
                        <path d="M1.13145785,0.0532547796 C1.19867249,1.93697353 1.08759745,3.62759259 1.12063515,5.46859017 C1.12576169,5.62295599 1.20949519,5.79327105 1.21519134,5.95732034 C1.21690019,6.06725615 1.12063515,6.13902771 1.11323015,6.25067237 C1.05114205,6.94674261 1.20607749,7.86439332 1.13886285,8.44426199 C3.65371567,8.58381781 6.05749345,8.51831202 7.52994974,8.51489432 C10.0721441,8.50748932 11.9854829,8.63850091 14.1648321,8.48812239 C14.3015398,7.17800654 14.132364,5.62295599 14.2616667,4.09866468 C14.5145761,4.02176657 15.0796347,4.02860196 15.3348225,4.11005699 C15.3570375,5.39454014 15.3604552,6.77016178 15.3348225,8.50179317 C16.2370936,8.62084282 17.1319597,8.5467928 17.8735992,8.5285651 C17.9134723,7.31813198 17.9077761,6.34067163 17.9100546,5.06644156 C17.9077761,4.73834298 17.8388526,4.39657363 17.9715731,4.09012044 C18.3816963,4.0445512 18.6750483,3.98303271 18.994033,4.10094314 C19.1090954,5.5392225 18.9159957,7.36484045 19.0925765,8.54280549 C19.905418,8.55932434 20.5957921,8.6088809 21.4815443,8.51888163 C21.6290747,7.39730854 21.3995197,5.84453645 21.578379,4.13056315 C21.9281229,4.04056389 22.3308412,4.01777927 22.6515347,4.14195546 C22.5860289,6.18402734 22.7278632,7.92021565 22.5934339,9.55615162 C18.6226437,9.7236186 14.307236,9.47469659 10.3472684,9.52026584 C9.84942441,9.52653161 9.35955501,9.56184777 8.83266059,9.55273392 C5.84046991,9.50374698 3.22194706,9.62165741 0.0543147758,9.45817774 C0.0087455288,7.80971023 0.0218466873,6.1823185 0.00532783528,4.91891112 C-0.0146087103,3.32911402 0.0218466873,1.91646736 0.107289025,0.0424320834 C0.431400294,0.0145209196 0.765195028,-0.0424406391 1.13145785,0.0532547796" id="Fill-149"></path>
                    </g>
                    <g id="Group-154" transform="translate(141.417854, 4.061432)" fill="#000000">
                        <path d="M1.6904753,4.89242828 C0.963076199,5.39425961 1.18009974,6.71861585 1.17098589,7.61860848 C1.16927704,7.9410109 1.06389816,8.24347678 1.21313744,8.45081685 C1.84711959,8.41834876 2.77502338,8.53398072 3.65337062,8.42689299 C3.73140795,7.29449721 3.64767446,6.12678525 3.69324371,4.62186087 C2.79495993,4.61844318 2.16610432,4.56262085 1.6904753,4.89242828 M17.4449032,5.40565192 C17.1111085,4.73635361 16.187192,4.63951896 15.4039706,4.69989821 C13.2041152,4.87306135 10.660212,4.55407662 8.76851859,4.67711359 C8.637507,5.83571169 8.7286455,7.28652259 8.67738009,8.38474144 C9.34610879,8.51917072 10.1008494,8.44853839 10.8715393,8.45765224 C13.1950013,8.48214571 15.6021968,8.54309457 17.5576871,8.43144992 C17.4631309,7.49671074 17.8094572,6.13817757 17.4449032,5.40565192 M10.1828741,0.0569615587 C10.1954056,1.60859442 10.1481275,2.57067514 10.239266,3.95996756 C11.5203315,4.20034534 14.3029036,3.93547409 16.4349748,4.07787799 C17.4665486,4.14623186 18.2355296,4.49027967 18.5653371,5.27122264 C19.0102068,6.31361917 18.5966659,8.02417477 18.7168548,9.51827646 C15.6335256,9.64530074 11.9378597,9.52055492 9.2988307,9.5125803 C6.72188978,9.50403607 3.22672854,9.56612417 0.0796024234,9.4613149 C-0.0696368604,8.03841516 0.0283370205,7.06266366 0.0739062675,5.46033502 C0.303461349,5.15672991 0.3382079,4.8274921 0.570041444,4.58768394 C1.47345176,3.66319784 3.31444934,4.06990337 4.77380448,4.04825798 C4.89627183,5.98039405 4.76639947,6.88095629 4.82336103,8.43942454 C5.74898636,8.47587993 6.53790395,8.50663918 7.45840274,8.42062722 C7.48916198,7.08544829 7.48004813,5.6386247 7.50568083,4.07730837 C7.9066902,3.98275218 8.77193628,4.08471337 9.21338836,3.99870142 C9.40990574,2.71991443 9.13649026,1.34315355 9.30452686,0.146391206 C9.34610879,0.10708773 9.33357725,0.0119619273 9.40250074,0 C9.67078968,0.0131011585 9.99148325,-0.0267719326 10.1828741,0.0569615587" id="Fill-152"></path>
                    </g>
                    <g id="Group-157" transform="translate(293.091184, 5.372077)" fill="#000000">
                        <path d="M0.669474606,0.00493953366 C1.04143358,-0.0332247107 1.45326565,0.146773815 1.49313874,0.649174763 C1.54041684,1.24556228 1.13428092,1.49220583 0.850042747,1.52068661 C-0.09779759,1.61239472 -0.382035768,0.118862651 0.669474606,0.00493953366" id="Fill-155"></path>
                    </g>
                    <g id="Group-160" transform="translate(294.999260, 5.365774)" fill="#000000">
                        <path d="M0.454409916,1.49366738 C0.106374792,1.21569497 -0.0702060399,0.918925253 0.0260589943,0.513928571 C0.171880585,-0.11207896 1.17041671,-0.158787438 1.44212334,0.33336043 C1.72294383,0.84316638 1.3526937,1.70214669 0.454409916,1.49366738" id="Fill-158"></path>
                    </g>
                    <g id="Group-163" transform="translate(251.898223, 5.190777)" fill="#000000">
                        <path d="M0.54052743,0.0299942832 C1.0326753,-0.0833592186 1.32204002,0.144487016 1.41146966,0.380307869 C1.61767051,0.899227669 1.24571153,1.63346216 0.473312791,1.44378017 C-0.175479363,1.28656627 -0.161238973,0.190625879 0.54052743,0.0299942832" id="Fill-161"></path>
                    </g>
                    <g id="Group-166" transform="translate(253.740940, 5.207511)" fill="#000000">
                        <path d="M1.47326245,0.433750681 C1.67376714,1.82760002 -0.121091577,1.6624115 0.00650231438,0.613179591 C0.0919446524,-0.0863083503 1.16168272,-0.242383021 1.47326245,0.433750681" id="Fill-164"></path>
                    </g>
                    <g id="Group-169" transform="translate(134.113413, 3.885816)" fill="#000000">
                        <path d="M0.692313213,0 C1.00958909,0.00114310056 1.31205497,0.256900499 1.31718151,0.640821405 C1.32116882,0.892021879 1.16452453,1.24518354 0.871172507,1.31980318 C-0.109705534,1.56758596 -0.386538709,-0.00284420855 0.692313213,0" id="Fill-167"></path>
                    </g>
                    <g id="Group-172" transform="translate(142.594172, 5.958576)" fill="#000000">
                        <path d="M0.497810037,0.0197834634 C1.05717254,-0.128886205 1.7133697,0.591107897 1.26508223,1.14990079 C0.847554007,1.66825097 -0.0507297735,1.33445624 0.00224447605,0.599082515 C0.0221810216,0.330223958 0.204458009,0.0961119521 0.497810037,0.0197834634" id="Fill-170"></path>
                    </g>
                    <g id="Group-175" transform="translate(144.339766, 5.976045)" fill="#000000">
                        <path d="M0.558124579,0.0205428774 C0.764325422,-0.014773289 0.964830108,-0.0096467487 1.09185438,0.0763652049 C1.48944606,0.338957991 1.43988951,1.33863335 0.787679661,1.38932913 C0.479517628,1.4138226 -0.101490271,1.24692524 0.0152809247,0.503576895 C0.0443313197,0.313325289 0.161102515,0.0906055946 0.558124579,0.0205428774" id="Fill-173"></path>
                    </g>
                    <g id="Group-178" transform="translate(273.793297, 7.695670)" fill="#000000">
                        <path d="M25.6002333,0.13650323 C25.7534599,1.07636895 25.618461,2.06237353 25.6150433,3.06489696 C25.6150433,3.98197806 25.7335234,4.94007147 25.5854233,5.94259491 C22.3146906,6.01208801 18.4202289,6.02974609 15.437152,5.97848069 C11.9818639,5.91867105 8.23151485,5.95227837 4.36097693,5.90670913 C3.9576891,6.9069541 3.32370695,7.62523935 1.951503,7.73403593 C1.62739173,7.76080786 1.28106546,7.72720054 0.927334176,7.72321323 C0.626577146,7.72093477 0.269428173,7.78701018 0,7.61555589 C0.00170884676,7.45321544 0.00341769352,7.29144462 0.00512654028,7.12910418 C1.33574855,7.02486452 2.65497825,7.26011576 3.04345608,6.03885994 C3.26161885,5.34506816 3.13060727,4.2684947 3.12320226,3.25856626 C3.10896187,2.12560086 3.13402496,0.964724293 3.20693575,0.0396685798 C3.63186898,0.0254281901 3.79022212,-0.00988797626 4.28066114,0.00264356665 C4.45154581,1.37826521 4.34616693,3.2819205 4.27895229,4.73557948 C4.94198483,4.92127416 5.75653512,4.81247758 6.51868078,4.80905989 C9.72048999,4.79254104 13.2993847,4.9338057 16.2294873,4.86659106 C16.4026504,3.53482982 16.2078419,1.68813609 16.3792962,0.134224767 C16.6669521,0.0578962786 17.2650484,0.0641620501 17.5492866,0.147325926 C17.5544132,1.88351424 17.4797935,3.47160249 17.5470082,4.83070528 C18.5734554,4.91956531 19.1345268,4.83013567 20.3278715,4.86032529 C20.5158446,3.44312171 20.2936945,1.54060565 20.4759715,0.130237458 C20.8621709,0.0630228189 21.2523576,0.0704278215 21.5981142,0.142199385 C21.6841262,1.81231229 21.5890004,3.27679396 21.6436835,4.82671797 C22.5351319,4.9338057 23.3895552,4.85178106 24.3282817,4.90361608 C24.5379003,4.13748311 24.4194202,3.34571745 24.4011925,2.61205257 C24.3829648,1.85560307 24.4228379,1.02795162 24.477521,0.125110918 C24.9058719,0.157009391 25.2829574,0.0858074424 25.6002333,0.13650323" id="Fill-176"></path>
                    </g>
                    <g id="Group-181" transform="translate(123.092037, 6.573647)" fill="#000000">
                        <path d="M11.2343579,0.868567774 C10.9410058,1.1362871 10.7387923,1.41255066 10.5889834,1.88590121 C10.3486056,2.66000879 10.3212641,4.21961627 10.8988543,4.62233449 C11.3767618,4.95214192 12.2203624,4.81600379 12.8492181,4.8382188 C12.9363692,4.16721164 12.9494704,3.49734371 12.9671285,2.74260305 C12.9893435,2.12969668 12.9289642,1.3481841 12.8964961,0.643000001 C12.3206148,0.598569985 11.8136569,0.522241497 11.2343579,0.868567774 M14.024335,0.069397105 C13.9480065,1.58856188 14.3125605,4.44233597 13.7127553,6.263397 C12.6464349,7.56553823 10.3577195,6.96402417 8.82317508,7.13604808 C8.78899815,8.39546814 8.16014254,9.43216851 6.79876129,9.50564892 C6.07876718,9.54552201 5.18447071,9.46520621 4.25998462,9.47830737 C3.06663996,9.49368699 1.45576708,9.69362206 0.655457181,8.95084334 C-0.45586283,7.91869989 0.216283563,6.30896625 0.068753126,4.69980221 C0.334763605,4.63315719 0.881594569,4.62119526 1.14190889,4.71062491 C1.39367898,6.09080348 0.540964448,8.3134435 2.12278693,8.81983175 C2.20993812,8.84831253 2.46170821,8.86881869 2.5602517,8.87394523 C3.54056013,8.92634987 4.52827356,8.84204676 5.48864544,8.85742638 C6.55667466,8.87565408 7.48400884,9.02090606 7.64464043,7.90502912 C7.78647471,6.91161954 7.56033733,5.64194639 7.73008277,4.63600527 C8.20001563,4.68499221 8.46089957,4.55056293 8.75254275,4.64853681 C8.85963048,5.43802401 8.79982084,5.74960374 8.83058009,6.45478784 C10.0387347,6.42915513 12.582638,6.96288494 12.8435219,5.47163133 C11.8592262,5.37080937 10.9991066,5.43973286 10.3617068,5.05524234 C9.81829351,4.73283992 9.61607998,4.2059455 9.30108256,3.67848146 C9.25551331,2.75342575 9.32101911,1.84830658 9.71804117,1.19324866 C10.195379,0.407179148 11.1249917,0.0272455515 12.3189059,0.0027520813 C12.8947873,-0.00920984603 13.4980102,0.0187013177 14.024335,0.069397105" id="Fill-179"></path>
                    </g>
                    <g id="Group-184" transform="translate(127.681755, 16.437078)" fill="#000000">
                        <path d="M0.545253481,0.0143479957 C1.55290345,-0.169068223 1.57113115,1.4691462 0.530443476,1.33129923 C-0.0944248229,1.24927459 -0.260182959,0.160739202 0.545253481,0.0143479957" id="Fill-182"></path>
                    </g>
                    <g id="Group-187" transform="translate(125.942710, 16.399743)" fill="#000000">
                        <path d="M0.952195811,1.35331194 C-0.0902007133,1.64210705 -0.296401556,0.224903467 0.430997549,0.0312341673 C1.30592709,-0.201738608 1.70124031,0.931226795 0.952195811,1.35331194" id="Fill-185"></path>
                    </g>
                    <g id="Group-190" transform="translate(203.548173, 3.767024)" fill="#000000">
                        <path d="M33.7668275,5.68069342 C33.6865117,5.26943096 33.1675919,4.7556377 32.850316,4.64627151 C32.3342443,4.46627299 31.2445697,4.50614608 30.9950781,4.62576535 C30.9369773,4.93221854 30.9933692,5.44772064 30.9825465,6.08910779 C30.955205,7.50232407 30.8145099,8.70307372 31.9246907,9.07560232 C32.4327878,9.24705661 33.0798711,9.09553886 33.7303721,9.14338657 C33.6318286,8.17048315 33.961636,6.68036877 33.7668275,5.68069342 M38.9024816,0.174219538 C39.0625436,1.75205471 38.9207093,3.31280142 38.9457724,5.19993786 C38.9622913,6.65074876 39.0004555,8.38465861 38.8950766,9.78648257 C38.0218559,9.89812722 36.8814855,9.84914028 35.6750397,9.84686182 C33.7212583,9.84686182 31.3778597,10.0695815 30.3132482,9.15648773 C29.8581253,9.38889089 29.5738872,9.67540753 28.9866135,9.77565987 C28.2763029,9.89812722 27.3267537,9.80015334 26.4518241,9.79673565 C24.0776664,9.78819142 21.6300282,9.81154566 19.0365684,9.76426756 C16.5894999,9.72097678 13.6263596,9.78477372 12.0114994,9.78648257 C10.9144198,9.78648257 9.79569476,9.79274834 9.0882322,9.16844966 C8.82962672,9.24193007 8.48500929,9.55066172 8.10792377,9.64692675 C7.29736079,9.85312759 5.7736391,9.76084987 4.68966064,9.75572333 C2.62822183,9.74490063 0.496150684,9.89413992 0.0752047651,8.09415466 C-0.0449841237,7.57979179 0.0057116635,6.91618963 0.0444455234,6.2901821 C0.326405239,6.22353707 0.891463901,6.21214476 1.16658823,6.30157441 C1.26684057,7.52283023 1.09025974,8.68313718 2.35651519,8.99756498 C2.74841072,9.09496925 3.36074747,9.06990616 3.86941419,9.06364039 C4.3592836,9.05794423 4.84231761,9.07958963 5.33446548,9.07958963 C5.94680224,9.07958963 7.16065305,9.16332312 7.62716822,9.05509616 C8.13013878,8.93889458 8.38133926,8.40174708 8.42178196,7.69770221 C8.54709739,5.43746756 8.31412462,2.70673044 8.4559589,0.0876379692 C8.73336169,-0.0633101614 9.17025684,0.0198537143 9.62594931,0.0511825716 C9.80309976,2.6759712 9.50405158,4.51639916 9.64645547,7.17422549 C9.67892356,7.75523339 9.89195979,8.44218978 10.4610058,8.59883407 C10.9782167,8.73838989 11.8166909,8.62218831 12.5583304,8.62161869 C15.2081821,8.61990985 17.2325959,8.64554255 19.5851082,8.64896024 C22.3625538,8.65180832 24.2120956,8.66149179 26.3168252,8.67402333 C27.6525738,8.6802891 29.0430054,8.9326288 29.4952802,8.12206582 C29.876353,7.4339702 29.6462283,6.67865993 29.6667345,5.92961543 C29.6832534,5.27227904 29.664456,4.61722112 29.735658,3.92912549 C30.512044,3.87558162 31.519694,3.7833039 32.5182301,3.86191085 C33.1072127,3.90691048 33.7776502,4.04589668 34.173533,4.31817293 C35.3777004,5.15152054 34.9111852,6.96403734 35.0023237,8.6694664 C35.8624433,8.79421222 37.0033833,8.71788373 37.6373654,8.69908641 C37.846984,8.35845629 37.7011624,7.99390232 37.6977447,7.6754872 C37.672112,6.05436124 37.7393266,2.78875508 37.775782,0.210674936 C38.1386271,0.121814904 38.5578642,0.169092998 38.9024816,0.174219538" id="Fill-188"></path>
                    </g>
                    <path d="M81.8319897,2.45574308 C81.646295,2.46314808 81.4748407,2.45232538 81.3472468,2.40105998 C81.3273103,2.24384608 81.2561083,2.13561912 81.2543995,1.96017752 C81.1176918,1.90036788 80.9171871,1.90435519 80.7166824,1.90606404 C80.5873796,2.12935335 80.665417,2.34409842 80.6130123,2.58732428 C81.0903502,2.86643592 81.3819934,2.55599542 81.9288244,2.74738626 C81.9305332,2.95586556 82.0216717,3.10681369 81.9214194,3.28510337 C81.1376283,3.36769763 80.2353572,3.32668531 79.5797297,3.30845761 C79.4794773,3.11307946 79.497705,2.96213133 79.5375781,2.72289279 C79.679982,2.64599468 79.8258036,2.71377894 79.9294736,2.72744971 C80.1100418,2.36574381 79.8109936,1.85252017 80.0405487,1.41163771 C80.8932632,1.3199296 82.2181891,1.28233497 81.8319897,2.45574308" id="Fill-192" fill="#000000"></path>
                    <path d="M118.53893,4.38423361 C118.526398,7.6253463 118.587916,11.312468 118.487664,13.7509923 C118.172667,13.8689027 117.815518,13.8068146 117.461786,13.7891566 C117.394572,13.4411214 117.376344,13.0703017 117.376344,12.7148616 C117.388876,10.1504522 117.407103,7.33939927 117.467483,4.32271513 C117.828049,4.27714588 118.280324,4.24012087 118.53893,4.38423361" id="Fill-194" fill="#000000"></path>
                    <path d="M114.491469,4.29087361 C114.562671,5.93991074 114.551848,7.58609979 114.535329,9.26703538 C114.517102,11.0795522 114.604253,12.2888461 114.438495,13.8040235 C108.364684,13.8011755 89.876101,13.8194032 84.1503251,13.798897 C83.0532455,13.7960489 81.5568654,13.7669985 80.197193,13.7567454 C80.0844091,12.9017524 80.0718775,11.995494 80.0809914,11.1199949 C80.0918141,10.3014573 80.1425099,9.479502 80.155611,8.72988788 C80.1829526,7.08085076 80.0006756,5.46200326 80.204598,4.19403896 C80.6785181,4.25612706 80.9337059,4.18093781 81.2287668,4.25270937 C81.2982599,7.14293886 81.2071214,9.59513396 81.281741,12.6944124 C82.7342608,12.7001085 96.7547789,12.7832724 98.8355846,12.7565005 C100.869112,12.7297285 98.4146387,12.7701712 100.432217,12.7268805 C100.464685,11.2088549 100.441331,9.43792006 100.479495,8.33400505 C100.998985,8.27647388 101.126578,8.3066635 101.552651,8.34767583 C101.631258,9.60538704 101.527588,11.2401838 101.603916,12.6909947 C103.07979,12.8128924 109.250436,12.7758674 110.74112,12.739412 C111.698074,12.717197 112.333765,12.8442213 113.376162,12.769032 C113.445655,10.8084152 113.470718,8.75381174 113.439959,6.86610568 C113.421731,5.93022727 113.383567,5.11339852 113.465591,4.37631595 C113.649577,4.18606435 114.159953,4.32846824 114.491469,4.29087361" id="Fill-196" fill="#000000"></path>
                    <path d="M100.078201,5.36374457 C100.910979,5.29311224 100.996421,6.5963927 100.258769,6.73082198 C99.41289,6.88461819 99.0101718,5.45374384 100.078201,5.36374457" id="Fill-198" fill="#000000"></path>
                    <path d="M101.687308,5.38111785 C102.704072,5.17776508 102.744515,6.77781527 101.81832,6.74762564 C101.191743,6.72825871 100.798138,5.55883791 101.687308,5.38111785" id="Fill-200" fill="#000000"></path>
                    <path d="M53.9208829,7.2737226 C53.0225991,7.41726573 52.7252598,6.00689753 53.6930367,5.90550596 C54.5024604,5.82006362 54.7063828,7.14840717 53.9208829,7.2737226 Z" id="Fill-202" fill="#000000"></path>
                    <path d="M76.4287302,10.3980071 C76.4213252,10.2527552 76.4543629,10.0488328 76.4344263,9.95883351 C76.2099978,8.94491777 75.0565262,8.71479307 73.9577378,8.90618391 C73.8517893,9.25421903 73.8990673,9.7355442 73.8956497,10.2237048 C73.8882447,10.7187007 73.8392577,11.2467344 73.877422,11.6864776 C74.0050158,13.13501 75.0804501,13.2141866 76.3979709,13.1298835 C76.423034,12.2367262 76.4651856,11.0730016 76.4287302,10.3980071 M77.467709,13.7268406 C75.9456962,13.7467772 74.1565336,14.0498127 73.3254645,13.1458327 C72.9990747,13.2967809 72.7182542,13.5798798 72.3924341,13.6715879 C71.728832,13.8584218 70.8157382,13.7467772 70.0011879,13.7917768 C69.3449907,13.8276626 68.6455028,13.7678529 67.9511414,13.7701314 C66.26394,13.7752579 64.9076853,13.7826629 63.1709274,13.7661441 C62.4879583,13.7598783 61.7605592,13.7353849 61.0240462,13.7439291 C60.1439902,13.7507645 59.0964671,13.7439291 58.1924872,13.7615872 C57.8991351,14.1523435 57.7749589,14.7139844 57.3978734,15.019868 C56.4483242,15.547332 54.6990348,15.4089154 53.539867,15.4174597 C52.3755728,15.4277128 50.7316622,15.502902 50.0338831,14.8922741 C49.7297084,14.6245548 49.4067363,13.9324718 49.3651544,13.4209571 C49.2483832,11.9057796 49.503571,9.56522914 49.4215463,8.3468214 C49.7473665,8.29156869 50.1757174,8.33030255 50.4929933,8.35878333 C50.6023595,9.97022582 50.5003983,11.1641401 50.496411,12.5540021 C50.496411,13.1475416 50.4491329,13.7826629 50.8210918,14.2172796 C51.4807067,14.9885391 52.7053802,14.7230983 53.7437894,14.7367691 C54.4928339,14.7464525 55.6502928,14.9258814 56.3298442,14.7168325 C57.0936987,14.4787332 57.0316106,13.3019074 57.0390156,12.2840043 C57.0464206,11.0593308 57.0099652,9.54814067 57.0316106,8.38156795 C57.2811022,8.22492367 57.9224894,8.28872061 58.1047664,8.34454294 C58.2437526,9.76516421 58.1452091,10.8434465 58.1560318,12.6388748 C59.6609561,12.7066591 61.4142329,12.6730518 63.3298501,12.6952668 C65.3508462,12.7169122 66.5954563,12.6838745 68.4506943,12.7015326 C68.5982247,11.3014175 68.4757573,9.31061097 68.5469593,8.26251829 C68.9023994,8.15998749 69.3746107,8.15543056 69.6201151,8.27391061 C69.6497351,10.0283266 69.6132797,10.9431292 69.6223935,12.6160902 C70.2108064,12.7095072 71.2366841,12.8251391 71.8655397,12.6895706 C72.3901557,12.5773564 72.6362296,12.1336258 72.7091404,11.5281245 C72.8293293,10.5016772 72.6402169,9.34250945 72.7928739,8.25967022 C73.226921,8.18448096 74.0505851,8.2260629 74.4533033,8.23005021 C75.3755109,8.23460713 76.1860739,8.24770829 76.7403099,8.64359112 C76.9738523,8.81048849 77.0194215,8.86915889 77.1737874,9.0884609 C77.635176,9.72870882 77.5241009,10.8109784 77.5332148,12.06812 C77.5383413,12.6012802 77.5747967,13.1555162 77.467709,13.7268406" id="Fill-204" fill="#000000"></path>
                    <path d="M68.0404571,14.0723694 C69.0680436,13.8735736 69.0281705,15.3642576 68.2683033,15.4411557 C67.5084362,15.5180538 67.1239456,14.2489503 68.0404571,14.0723694" id="Fill-206" fill="#000000"></path>
                    <path d="M69.6496211,14.0905402 C70.3274637,13.9054151 70.5735376,14.4038287 70.5701199,14.7336362 C70.5587276,15.6387553 69.1250052,15.6928688 69.2030425,14.6698392 C69.2269664,14.3844618 69.3796234,14.2187037 69.6496211,14.0905402" id="Fill-208" fill="#000000"></path>
                </g>
            </g>
        </g>
    </g>
</svg>