<?xml version="1.0" encoding="UTF-8"?>
<svg width="506px" height="76px" viewBox="0 0 506 76" version="1.1" xmlns="http://www.w3.org/2000/svg" xmlns:xlink="http://www.w3.org/1999/xlink">
    <title>Group 3</title>
    <defs>
        <polyline id="path-1" points="0 30.8509115 301.734671 32.886218 301.872788 2.03434738 0.1352395 0"></polyline>
    </defs>
    <g id="web-final" stroke="none" stroke-width="1" fill="none" fill-rule="evenodd">
        <g id="websit-2" transform="translate(-23.000000, -34.000000)">
            <g id="Group-3" transform="translate(23.356435, 34.368050)">
                <circle id="Oval" fill="#FFFFFF" opacity="0.527320499" cx="38.8912089" cy="33.8303917" r="21.8456281"></circle>
                <g id="Group-2">
                    <g id="Group">
                        <path d="M48.0989095,62.8993676 C51.9286502,65.3955593 55.3991269,67.4747161 58.4977024,69.1470683 C62.3418858,65.8312495 65.9646135,62.2073183 69.2443253,58.3517011 C67.597248,55.2272489 65.5331358,51.7393205 63.0429619,47.9011549 C59.1109183,48.7304105 54.8852051,49.5024968 50.4235934,50.2125995 C49.7140924,54.7000879 48.9353865,58.9390403 48.0989095,62.8993676" id="Fill-1" fill="#009A3F"></path>
                        <path d="M26.9014998,62.8993676 C27.8547224,67.3778292 28.8476627,71.3291298 29.8761082,74.7039233 C34.936493,75.0986922 40.0648792,75.0986922 45.125264,74.7039233 C46.1615326,71.3291298 47.143039,67.3778292 48.0986688,62.8993676 C44.7088308,60.6974473 41.1655384,58.241575 37.4940665,55.5714682 C33.8340284,58.241575 30.2889306,60.6974473 26.9014998,62.8993676" id="Fill-3" fill="#009A3F"></path>
                        <path d="M11.9594935,47.9012753 C9.47052316,51.7394408 7.40219843,55.2273693 5.75993536,58.3512196 C9.03603655,62.2074387 12.6545517,65.8313699 16.5029476,69.1471887 C19.5882839,67.4820579 23.0828319,65.3956797 26.9017405,62.899488 C26.0586439,58.9391606 25.2835487,54.7002083 24.5878887,50.2127199 C20.1172502,49.5026171 15.886121,48.7431683 11.9594935,47.9012753" id="Fill-5" fill="#009A3F"></path>
                        <path d="M12.0033032,26.7706031 C7.56395743,27.7184098 3.6475602,28.7324124 0.314289717,29.7722917 C-0.0846917469,34.8194373 -0.109364809,39.9327789 0.272164977,44.9696943 C3.60543546,45.9776791 7.51641666,46.9609909 11.9593731,47.9015761 C14.1480543,44.5153489 16.5948999,40.9558083 19.2662101,37.2867435 C16.6123515,33.6537856 14.1883737,30.1291484 12.0033032,26.7706031" id="Fill-7" fill="#009A3F"></path>
                        <path d="M26.9599328,11.8715039 C23.1476438,9.42285295 19.6964241,7.38762624 16.6273359,5.784479 C12.7951882,9.04433208 9.16764628,12.649608 5.89154509,16.472729 C7.50010836,19.5364012 9.55278675,22.9695675 12.003243,26.7704226 C15.9358884,25.9050601 20.1591944,25.1215399 24.6135848,24.4132425 C25.3303071,19.9588522 26.1096148,15.7608209 26.9599328,11.8715039" id="Fill-9" fill="#009A3F"></path>
                        <path d="M48.0467952,11.8715039 C47.0899618,7.45743295 46.1042429,3.59760322 45.0739921,0.292014714 C40.0442982,-0.097338238 34.9496118,-0.097338238 29.9313518,0.292014714 C28.9071188,3.59760322 27.9171874,7.45743295 26.9597523,11.8715039 C30.330935,14.0180603 33.8483508,16.4450471 37.4939461,19.0820558 C41.14917,16.4450471 44.6792232,14.0180603 48.0467952,11.8715039" id="Fill-11" fill="#009A3F"></path>
                        <path d="M62.9980087,26.7706031 C65.4520757,22.969748 67.4903114,19.5359799 69.1151227,16.4723078 C65.8203663,12.6491868 62.2102761,9.04391083 58.3841462,5.78465953 C55.2939956,7.38780677 51.8457848,9.42303349 48.046735,11.8716844 C48.8874245,15.7603997 49.6649268,19.9590327 50.3828527,24.413423 C54.8438627,25.1217204 59.0743901,25.9052406 62.9980087,26.7706031" id="Fill-13" fill="#009A3F"></path>
                        <path d="M74.6787778,29.7721112 C71.3394895,28.7328337 67.4345262,27.724247 62.9981893,26.7704226 C60.8095082,30.1289679 58.394557,33.6536051 55.741902,37.286563 C58.4053891,40.9562296 60.8534382,44.5157701 63.0427211,47.9013956 C67.4892883,46.9608104 71.3966588,45.9781004 74.7275222,44.9695137 C75.1114591,39.9332002 75.0885914,34.8198586 74.6787778,29.7721112" id="Fill-15" fill="#009A3F"></path>
                        <path d="M55.7178307,37.3397003 C55.7178307,42.2496396 53.6862147,46.7521725 50.4432115,50.0427165 C50.4305741,50.099284 50.4233527,50.1618693 50.4233527,50.2130208 C54.8849644,49.502918 59.1106776,48.73023 63.0427211,47.9015761 C60.8528365,44.5153489 58.4053891,40.9558083 55.741902,37.2867435 C55.7352824,37.304797 55.7178307,37.315629 55.7178307,37.3397003" id="Fill-17" fill="#12532A"></path>
                        <path d="M50.2604503,50.242147 C46.9632867,53.4977876 42.4583467,55.525793 37.5490092,55.5438464 C37.5291504,55.5546785 37.513504,55.5661124 37.494247,55.5715284 C41.165719,58.2416351 44.7084096,60.6975075 48.0988494,62.8994278 C48.9353263,58.9391005 49.7140322,54.7001481 50.4235332,50.2126597 C50.3609479,50.231315 50.3103982,50.231315 50.2604503,50.242147" id="Fill-19" fill="#12532A"></path>
                        <path d="M37.4613897,55.544027 C32.5400165,55.5253717 28.0332712,53.4925521 24.7463379,50.2423276 C24.69639,50.2308937 24.6368136,50.2308937 24.5880692,50.2128403 C25.2837292,54.7003286 26.0588244,58.9386792 26.9013192,62.8996083 C30.2887501,60.697688 33.8338478,58.2418157 37.4944877,55.5711072 C37.4842574,55.5656911 37.4734253,55.554859 37.4613897,55.544027" id="Fill-21" fill="#12532A"></path>
                        <path d="M24.564359,50.0536689 C21.3111255,46.763125 19.283722,42.24976 19.2789077,37.3283868 C19.2734917,37.3157494 19.2662703,37.2995013 19.2662703,37.2868639 C16.59496,40.9559287 14.1481144,44.5154692 11.9594333,47.9010947 C15.8860608,48.7429877 20.1171901,49.5024366 24.5884303,50.2125394 C24.5884303,50.1613879 24.5715804,50.1120418 24.564359,50.0536689" id="Fill-23" fill="#12532A"></path>
                        <path d="M19.2836618,37.2645377 C19.3035206,32.3509877 21.3363402,27.8574816 24.5883701,24.5765661 C24.5943879,24.5175915 24.6064236,24.46644 24.613645,24.4134832 C20.1592546,25.1217806 15.9359486,25.904699 12.0033032,26.7706633 C14.1883737,30.1286068 16.6123515,33.6538458 19.2662101,37.2868037 C19.2662101,37.2807859 19.2734315,37.2699538 19.2836618,37.2645377" id="Fill-25" fill="#12532A"></path>
                        <path d="M24.7811811,24.3841764 C28.0735304,21.1429786 32.5628241,19.1246018 37.4631349,19.1059465 C37.4733652,19.0951145 37.4841972,19.0951145 37.4944275,19.082477 C33.8488322,16.4448665 30.3314164,14.0184815 26.9602337,11.8713234 C26.1099157,15.7606404 25.3300063,19.9592734 24.6138857,24.4136637 C24.6758692,24.3968138 24.7264189,24.3895925 24.7811811,24.3841764" id="Fill-27" fill="#12532A"></path>
                        <path d="M37.5436533,19.1061271 C42.4373445,19.1247823 46.9230275,21.1431591 50.2189875,24.384357 C50.2761568,24.389773 50.3405475,24.3969944 50.383274,24.4132425 C49.6647463,19.9588522 48.8878457,15.7608209 48.0465545,11.8715039 C44.6795842,14.0180603 41.1489293,16.4450471 37.4943072,19.0820558 C37.5135642,19.095295 37.5292105,19.095295 37.5436533,19.1061271" id="Fill-29" fill="#12532A"></path>
                        <path d="M50.4176357,24.5762652 C53.6642496,27.8740306 55.6964674,32.3506869 55.7181316,37.2515994 C55.7181316,37.2642369 55.7349815,37.2810868 55.7416011,37.2865028 C58.3942561,33.6535449 60.8092073,30.1289077 62.9978884,26.7703624 C59.0742698,25.9049999 54.8437423,25.1220815 50.3827324,24.4131823 C50.403193,24.4667409 50.4104144,24.5233084 50.4176357,24.5762652" id="Fill-31" fill="#12532A"></path>
                    </g>
                    <path d="M91.072755,53.5572675 L87.9344312,44.8175347 L84.8824306,53.5572675 L91.072755,53.5572675 Z M82.5286878,60.2463474 C82.4404464,60.5331319 82.4155087,60.7105738 82.4155087,61.0577844 L80.5825818,61.0577844 C80.7878389,60.7364707 80.8732029,60.5331319 80.9911778,60.2463474 L87.3224965,42.3755505 C87.4088196,42.0839703 87.4385531,41.9353028 87.4673274,41.679211 L90.2584405,41.679211 C90.2862557,41.9113241 90.3188667,42.0523185 90.4051898,42.3189609 L96.9408065,60.2463474 C97.0587814,60.5331319 97.1451044,60.6865952 97.4069511,61.0577844 L93.6288774,61.0577844 C93.6288774,60.7364707 93.6029805,60.5935581 93.4830873,60.2463474 L91.6242636,54.9844758 L84.4191634,54.9844758 L82.5286878,60.2463474 Z" id="Fill-33" fill="#FFFFFF"></path>
                    <path d="M91.072755,53.5572675 L87.9344312,44.8175347 L84.8824306,53.5572675 L91.072755,53.5572675 Z M82.5286878,60.2463474 C82.4404464,60.5331319 82.4155087,60.7105738 82.4155087,61.0577844 L80.5825818,61.0577844 C80.7878389,60.7364707 80.8732029,60.5331319 80.9911778,60.2463474 L87.3224965,42.3755505 C87.4088196,42.0839703 87.4385531,41.9353028 87.4673274,41.679211 L90.2584405,41.679211 C90.2862557,41.9113241 90.3188667,42.0523185 90.4051898,42.3189609 L96.9408065,60.2463474 C97.0587814,60.5331319 97.1451044,60.6865952 97.4069511,61.0577844 L93.6288774,61.0577844 C93.6288774,60.7364707 93.6029805,60.5935581 93.4830873,60.2463474 L91.6242636,54.9844758 L84.4191634,54.9844758 L82.5286878,60.2463474 Z" id="Stroke-35" stroke="#000000" stroke-width="0.25" fill="#000000"></path>
                    <path d="M99.3791459,61.0574967 C99.465469,60.6872666 99.4961616,60.4446028 99.4961616,60.1549409 L99.4961616,42.6083351 C99.4961616,42.2870214 99.465469,42.0836826 99.3791459,41.6798824 L102.838783,41.6798824 C102.749583,42.0261338 102.720808,42.2611245 102.720808,42.6083351 L102.720808,59.4921714 L108.214793,59.4921714 C108.735609,59.4921714 108.851666,59.4586013 109.200795,59.3435039 L109.200795,61.0574967 L99.3791459,61.0574967 Z" id="Fill-37" fill="#FFFFFF"></path>
                    <path d="M99.3791459,61.0574967 C99.465469,60.6872666 99.4961616,60.4446028 99.4961616,60.1549409 L99.4961616,42.6083351 C99.4961616,42.2870214 99.465469,42.0836826 99.3791459,41.6798824 L102.838783,41.6798824 C102.749583,42.0261338 102.720808,42.2611245 102.720808,42.6083351 L102.720808,59.4921714 L108.214793,59.4921714 C108.735609,59.4921714 108.851666,59.4586013 109.200795,59.3435039 L109.200795,61.0574967 L99.3791459,61.0574967 Z" id="Stroke-39" stroke="#000000" stroke-width="0.25" fill="#000000"></path>
                    <path d="M119.860832,60.2122978 L119.860832,60.3273952 C119.889607,60.8510886 119.889607,60.8510886 119.889607,61.0573049 L118.145881,61.0573049 C118.290711,60.5671816 118.350179,60.3868622 118.407727,60.1547491 L121.172943,42.5246976 L121.172943,42.2273626 L121.172943,41.6796905 L124.07244,41.6796905 C124.105051,42.0269012 124.130948,42.1957108 124.191374,42.4335788 L129.365963,57.4835291 L134.563572,42.3443783 C134.623039,42.1957108 134.652773,42.0527981 134.652773,41.8465818 L134.652773,41.6796905 L137.588717,41.6796905 L137.588717,41.8772745 L137.588717,42.0834907 L137.588717,42.3443783 L140.139084,60.2122978 C140.169777,60.418514 140.230203,60.5671816 140.375993,61.0573049 L136.919233,61.0573049 C136.9787,60.8510886 136.9787,60.767643 136.9787,60.6170571 C136.9787,60.5336115 136.9787,60.3868622 136.948008,60.2698465 L134.91366,45.8040157 L129.975021,60.2122978 C129.884861,60.4760628 129.829231,60.7100942 129.829231,60.9086373 L129.829231,61.0573049 L127.094707,61.0573049 L127.094707,60.8856179 C127.094707,60.7100942 127.065933,60.5019597 126.974814,60.3273952 L122.095641,46.1483489 L119.860832,60.2122978 Z" id="Fill-41" fill="#FFFFFF"></path>
                    <path d="M119.860832,60.2122978 L119.860832,60.3273952 C119.889607,60.8510886 119.889607,60.8510886 119.889607,61.0573049 L118.145881,61.0573049 C118.290711,60.5671816 118.350179,60.3868622 118.407727,60.1547491 L121.172943,42.5246976 L121.172943,42.2273626 L121.172943,41.6796905 L124.07244,41.6796905 C124.105051,42.0269012 124.130948,42.1957108 124.191374,42.4335788 L129.365963,57.4835291 L134.563572,42.3443783 C134.623039,42.1957108 134.652773,42.0527981 134.652773,41.8465818 L134.652773,41.6796905 L137.588717,41.6796905 L137.588717,41.8772745 L137.588717,42.0834907 L137.588717,42.3443783 L140.139084,60.2122978 C140.169777,60.418514 140.230203,60.5671816 140.375993,61.0573049 L136.919233,61.0573049 C136.9787,60.8510886 136.9787,60.767643 136.9787,60.6170571 C136.9787,60.5336115 136.9787,60.3868622 136.948008,60.2698465 L134.91366,45.8040157 L129.975021,60.2122978 C129.884861,60.4760628 129.829231,60.7100942 129.829231,60.9086373 L129.829231,61.0573049 L127.094707,61.0573049 L127.094707,60.8856179 C127.094707,60.7100942 127.065933,60.5019597 126.974814,60.3273952 L122.095641,46.1483489 L119.860832,60.2122978 Z" id="Stroke-43" stroke="#000000" stroke-width="0.25" fill="#000000"></path>
                    <path d="M158.589397,41.6794028 C158.503074,42.0266134 158.47334,42.1963822 158.47334,42.6078555 L158.47334,54.6317022 C158.47334,58.965121 155.682227,61.3447608 150.661101,61.3447608 C147.752972,61.3447608 145.8366,60.5927908 144.525448,58.9104497 C143.627688,57.8045551 143.162502,56.345695 143.162502,54.7861246 L143.162502,42.6078555 C143.162502,42.287501 143.130851,42.0525103 143.045487,41.6794028 L146.504165,41.6794028 C146.417842,42.0525103 146.389068,42.261604 146.389068,42.6078555 L146.389068,54.8436733 C146.389068,57.9532226 148.308317,59.7794355 151.557902,59.7794355 C155.048232,59.7794355 157.023113,57.8621038 157.023113,54.4024664 L157.023113,42.6078555 C157.023113,42.1963822 156.993379,41.9920842 156.903219,41.6794028 L158.589397,41.6794028 Z" id="Fill-45" fill="#FFFFFF"></path>
                    <path d="M158.589397,41.6794028 C158.503074,42.0266134 158.47334,42.1963822 158.47334,42.6078555 L158.47334,54.6317022 C158.47334,58.965121 155.682227,61.3447608 150.661101,61.3447608 C147.752972,61.3447608 145.8366,60.5927908 144.525448,58.9104497 C143.627688,57.8045551 143.162502,56.345695 143.162502,54.7861246 L143.162502,42.6078555 C143.162502,42.287501 143.130851,42.0525103 143.045487,41.6794028 L146.504165,41.6794028 C146.417842,42.0525103 146.389068,42.261604 146.389068,42.6078555 L146.389068,54.8436733 C146.389068,57.9532226 148.308317,59.7794355 151.557902,59.7794355 C155.048232,59.7794355 157.023113,57.8621038 157.023113,54.4024664 L157.023113,42.6078555 C157.023113,42.1963822 156.993379,41.9920842 156.903219,41.6794028 L158.589397,41.6794028 Z" id="Stroke-47" stroke="#000000" stroke-width="0.25" fill="#000000"></path>
                    <path d="M162.480554,61.0574967 C162.564959,60.6872666 162.59661,60.4446028 162.59661,60.1549409 L162.59661,42.6083351 C162.59661,42.2870214 162.564959,42.0836826 162.480554,41.6798824 L165.935396,41.6798824 C165.853868,42.0261338 165.822216,42.2611245 165.822216,42.6083351 L165.822216,59.4921714 L171.311405,59.4921714 C171.839895,59.4921714 171.950196,59.4586013 172.302203,59.3435039 L172.302203,61.0574967 L162.480554,61.0574967 Z" id="Fill-49" fill="#FFFFFF"></path>
                    <path d="M162.480554,61.0574967 C162.564959,60.6872666 162.59661,60.4446028 162.59661,60.1549409 L162.59661,42.6083351 C162.59661,42.2870214 162.564959,42.0836826 162.480554,41.6798824 L165.935396,41.6798824 C165.853868,42.0261338 165.822216,42.2611245 165.822216,42.6083351 L165.822216,59.4921714 L171.311405,59.4921714 C171.839895,59.4921714 171.950196,59.4586013 172.302203,59.3435039 L172.302203,61.0574967 L162.480554,61.0574967 Z" id="Stroke-51" stroke="#000000" stroke-width="0.25" fill="#000000"></path>
                    <path d="M174.594272,61.0574967 C174.681555,60.6872666 174.710329,60.4446028 174.710329,60.1549409 L174.710329,42.6083351 C174.710329,42.2870214 174.681555,42.0836826 174.594272,41.6798824 L178.051992,41.6798824 C177.96375,42.0261338 177.934976,42.2611245 177.934976,42.6083351 L177.934976,59.4921714 L183.428961,59.4921714 C183.952654,59.4921714 184.06967,59.4586013 184.41688,59.3435039 L184.41688,61.0574967 L174.594272,61.0574967 Z" id="Fill-53" fill="#FFFFFF"></path>
                    <path d="M174.594272,61.0574967 C174.681555,60.6872666 174.710329,60.4446028 174.710329,60.1549409 L174.710329,42.6083351 C174.710329,42.2870214 174.681555,42.0836826 174.594272,41.6798824 L178.051992,41.6798824 C177.96375,42.0261338 177.934976,42.2611245 177.934976,42.6083351 L177.934976,59.4921714 L183.428961,59.4921714 C183.952654,59.4921714 184.06967,59.4586013 184.41688,59.3435039 L184.41688,61.0574967 L174.594272,61.0574967 Z" id="Stroke-55" stroke="#000000" stroke-width="0.25" fill="#000000"></path>
                    <path d="M196.17677,53.5572675 L193.041324,44.8175347 L189.987405,53.5572675 L196.17677,53.5572675 Z M187.639417,60.2463474 C187.551176,60.5331319 187.519524,60.7105738 187.519524,61.0577844 L185.686597,61.0577844 C185.891854,60.7364707 185.982014,60.5331319 186.095193,60.2463474 L192.429389,42.3755505 C192.517631,42.0839703 192.546405,41.9353028 192.577098,41.679211 L195.365333,41.679211 C195.394108,41.9113241 195.422882,42.0523185 195.512082,42.3189609 L202.049617,60.2463474 C202.163756,60.5331319 202.254875,60.6865952 202.514803,61.0577844 L198.731934,61.0577844 C198.731934,60.7364707 198.706996,60.5935581 198.592857,60.2463474 L196.726361,54.9844758 L189.523179,54.9844758 L187.639417,60.2463474 Z" id="Fill-57" fill="#FFFFFF"></path>
                    <path d="M196.17677,53.5572675 L193.041324,44.8175347 L189.987405,53.5572675 L196.17677,53.5572675 Z M187.639417,60.2463474 C187.551176,60.5331319 187.519524,60.7105738 187.519524,61.0577844 L185.686597,61.0577844 C185.891854,60.7364707 185.982014,60.5331319 186.095193,60.2463474 L192.429389,42.3755505 C192.517631,42.0839703 192.546405,41.9353028 192.577098,41.679211 L195.365333,41.679211 C195.394108,41.9113241 195.422882,42.0523185 195.512082,42.3189609 L202.049617,60.2463474 C202.163756,60.5331319 202.254875,60.6865952 202.514803,61.0577844 L198.731934,61.0577844 C198.731934,60.7364707 198.706996,60.5935581 198.592857,60.2463474 L196.726361,54.9844758 L189.523179,54.9844758 L187.639417,60.2463474 Z" id="Stroke-59" stroke="#000000" stroke-width="0.25" fill="#000000"></path>
                    <path d="M216.020721,41.6794028 C215.93248,41.9920842 215.907542,42.1695261 215.907542,42.6078555 L215.907542,60.1314418 C215.907542,60.5668938 215.93248,60.7366626 216.020721,61.0570171 L212.563002,61.0570171 C212.651243,60.686787 212.680018,60.4441232 212.680018,60.1314418 L212.680018,42.6078555 C212.680018,42.287501 212.651243,42.0525103 212.563002,41.6794028 L216.020721,41.6794028 Z" id="Fill-61" fill="#FFFFFF"></path>
                    <path d="M216.020721,41.6794028 C215.93248,41.9920842 215.907542,42.1695261 215.907542,42.6078555 L215.907542,60.1314418 C215.907542,60.5668938 215.93248,60.7366626 216.020721,61.0570171 L212.563002,61.0570171 C212.651243,60.686787 212.680018,60.4441232 212.680018,60.1314418 L212.680018,42.6078555 C212.680018,42.287501 212.651243,42.0525103 212.563002,41.6794028 L216.020721,41.6794028 Z" id="Stroke-63" stroke="#000000" stroke-width="0.25" fill="#000000"></path>
                    <path d="M221.82921,60.1313459 C221.82921,60.501576 221.860861,60.7106697 221.945266,61.0578804 L220.231273,61.0578804 C220.315678,60.6866911 220.348289,60.4440273 220.348289,60.1313459 L220.348289,42.6087188 C220.348289,42.2615081 220.315678,42.0524144 220.231273,41.6793069 L223.313008,41.6793069 C223.372475,41.9353987 223.401249,41.9929474 223.660218,42.3449538 L234.234796,57.1570361 L234.234796,42.6087188 C234.234796,42.2615081 234.202185,42.0265175 234.122576,41.6793069 L235.83561,41.6793069 C235.744491,41.9929474 235.719553,42.1464107 235.719553,42.6087188 L235.719553,60.1812215 C235.719553,60.653121 235.744491,60.7682185 235.861507,61.0578804 L233.045456,61.0578804 L232.92844,60.7941154 C232.83924,60.653121 232.725101,60.501576 232.609045,60.3270116 L221.82921,45.25596 L221.82921,60.1313459 Z" id="Fill-65" fill="#FFFFFF"></path>
                    <path d="M221.82921,60.1313459 C221.82921,60.501576 221.860861,60.7106697 221.945266,61.0578804 L220.231273,61.0578804 C220.315678,60.6866911 220.348289,60.4440273 220.348289,60.1313459 L220.348289,42.6087188 C220.348289,42.2615081 220.315678,42.0524144 220.231273,41.6793069 L223.313008,41.6793069 C223.372475,41.9353987 223.401249,41.9929474 223.660218,42.3449538 L234.234796,57.1570361 L234.234796,42.6087188 C234.234796,42.2615081 234.202185,42.0265175 234.122576,41.6793069 L235.83561,41.6793069 C235.744491,41.9929474 235.719553,42.1464107 235.719553,42.6087188 L235.719553,60.1812215 C235.719553,60.653121 235.744491,60.7682185 235.861507,61.0578804 L233.045456,61.0578804 L232.92844,60.7941154 C232.83924,60.653121 232.725101,60.501576 232.609045,60.3270116 L221.82921,45.25596 L221.82921,60.1313459 Z" id="Stroke-67" stroke="#000000" stroke-width="0.25" fill="#000000"></path>
                    <path d="M239.288341,57.5486551 C241.148124,59.2050992 242.194552,59.6568567 243.87977,59.6568567 C246.060867,59.6568567 247.565766,58.3025434 247.565766,56.3199899 C247.565766,55.1872392 247.137987,54.3451095 246.176924,53.64877 C245.768328,53.3619855 244.929075,52.9179012 243.357995,52.1668903 C240.045107,50.5967693 238.765607,49.0880336 238.765607,46.7304542 C238.765607,43.5576013 241.378319,41.385137 245.184208,41.385137 C246.789817,41.385137 248.004096,41.6795946 249.691232,42.4334829 L249.086012,44.4946863 C247.51685,43.3696088 246.318877,42.9207288 245.01348,42.9207288 C243.181512,42.9207288 241.817608,44.1474757 241.817608,45.8039198 C241.817608,47.4008969 242.570537,48.1308065 245.828754,49.6078904 C247.867897,50.5468938 248.881714,51.2298053 249.573257,52.1668903 C250.301249,53.0934248 250.651337,54.2041151 250.651337,55.4203115 C250.651337,57.277217 249.753577,59.0804103 248.299512,60.1546531 C247.249248,60.9085414 245.710779,61.3439934 243.996786,61.3439934 C242.052598,61.3439934 240.626349,60.9430707 238.622694,59.8678687 L239.288341,57.5486551 Z" id="Fill-69" fill="#FFFFFF"></path>
                    <path d="M239.288341,57.5486551 C241.148124,59.2050992 242.194552,59.6568567 243.87977,59.6568567 C246.060867,59.6568567 247.565766,58.3025434 247.565766,56.3199899 C247.565766,55.1872392 247.137987,54.3451095 246.176924,53.64877 C245.768328,53.3619855 244.929075,52.9179012 243.357995,52.1668903 C240.045107,50.5967693 238.765607,49.0880336 238.765607,46.7304542 C238.765607,43.5576013 241.378319,41.385137 245.184208,41.385137 C246.789817,41.385137 248.004096,41.6795946 249.691232,42.4334829 L249.086012,44.4946863 C247.51685,43.3696088 246.318877,42.9207288 245.01348,42.9207288 C243.181512,42.9207288 241.817608,44.1474757 241.817608,45.8039198 C241.817608,47.4008969 242.570537,48.1308065 245.828754,49.6078904 C247.867897,50.5468938 248.881714,51.2298053 249.573257,52.1668903 C250.301249,53.0934248 250.651337,54.2041151 250.651337,55.4203115 C250.651337,57.277217 249.753577,59.0804103 248.299512,60.1546531 C247.249248,60.9085414 245.710779,61.3439934 243.996786,61.3439934 C242.052598,61.3439934 240.626349,60.9430707 238.622694,59.8678687 L239.288341,57.5486551 Z" id="Stroke-71" stroke="#000000" stroke-width="0.25" fill="#000000"></path>
                    <path d="M268.839419,41.6794028 C268.753096,42.0266134 268.723362,42.1963822 268.723362,42.6078555 L268.723362,54.6317022 C268.723362,58.965121 265.933208,61.3447608 260.904409,61.3447608 C257.998199,61.3447608 256.082785,60.5927908 254.778348,58.9104497 C253.873873,57.8045551 253.408688,56.345695 253.408688,54.7861246 L253.408688,42.6078555 C253.408688,42.287501 253.379914,42.0525103 253.292631,41.6794028 L256.750351,41.6794028 C256.664027,42.0525103 256.633335,42.261604 256.633335,42.6078555 L256.633335,54.8436733 C256.633335,57.9532226 258.550666,59.7794355 261.805047,59.7794355 C265.292499,59.7794355 267.273135,57.8621038 267.273135,54.4024664 L267.273135,42.6078555 C267.273135,42.1963822 267.241483,41.9920842 267.15516,41.6794028 L268.839419,41.6794028 Z" id="Fill-73" fill="#FFFFFF"></path>
                    <path d="M268.839419,41.6794028 C268.753096,42.0266134 268.723362,42.1963822 268.723362,42.6078555 L268.723362,54.6317022 C268.723362,58.965121 265.933208,61.3447608 260.904409,61.3447608 C257.998199,61.3447608 256.082785,60.5927908 254.778348,58.9104497 C253.873873,57.8045551 253.408688,56.345695 253.408688,54.7861246 L253.408688,42.6078555 C253.408688,42.287501 253.379914,42.0525103 253.292631,41.6794028 L256.750351,41.6794028 C256.664027,42.0525103 256.633335,42.261604 256.633335,42.6078555 L256.633335,54.8436733 C256.633335,57.9532226 258.550666,59.7794355 261.805047,59.7794355 C265.292499,59.7794355 267.273135,57.8621038 267.273135,54.4024664 L267.273135,42.6078555 C267.273135,42.1963822 267.241483,41.9920842 267.15516,41.6794028 L268.839419,41.6794028 Z" id="Stroke-75" stroke="#000000" stroke-width="0.25" fill="#000000"></path>
                    <path d="M277.576178,50.9772623 C279.849353,50.9772623 281.419474,49.3783669 281.419474,47.0850503 C281.419474,45.8611808 280.921678,44.6430661 280.1112,43.9409717 C279.441716,43.3702802 278.62932,43.0988421 277.438062,43.0988421 L276.071279,43.0988421 L276.071279,50.9772623 L277.576178,50.9772623 Z M276.101972,60.1313459 C276.101972,60.4756791 276.128828,60.6866911 276.213233,61.0578804 L272.729617,61.0578804 C272.814981,60.7106697 272.846633,60.501576 272.846633,60.1313459 L272.846633,42.6087188 C272.846633,42.3190569 272.814981,42.0840662 272.729617,41.6793069 L278.62932,41.6793069 C282.228034,41.6793069 284.70167,43.8028548 284.70167,46.9363828 C284.70167,49.0311563 283.597693,50.5964816 281.619935,51.3551656 C280.982104,51.6141348 280.515959,51.7282731 279.470491,51.9344894 L285.833461,60.3039921 C286.213283,60.7682185 286.23918,60.8276855 286.618042,61.0578804 L282.376701,61.0578804 C282.256808,60.7106697 282.171444,60.5332278 281.968105,60.2119141 L276.101972,52.0754838 L276.101972,60.1313459 Z" id="Fill-77" fill="#FFFFFF"></path>
                    <path d="M277.576178,50.9772623 C279.849353,50.9772623 281.419474,49.3783669 281.419474,47.0850503 C281.419474,45.8611808 280.921678,44.6430661 280.1112,43.9409717 C279.441716,43.3702802 278.62932,43.0988421 277.438062,43.0988421 L276.071279,43.0988421 L276.071279,50.9772623 L277.576178,50.9772623 Z M276.101972,60.1313459 C276.101972,60.4756791 276.128828,60.6866911 276.213233,61.0578804 L272.729617,61.0578804 C272.814981,60.7106697 272.846633,60.501576 272.846633,60.1313459 L272.846633,42.6087188 C272.846633,42.3190569 272.814981,42.0840662 272.729617,41.6793069 L278.62932,41.6793069 C282.228034,41.6793069 284.70167,43.8028548 284.70167,46.9363828 C284.70167,49.0311563 283.597693,50.5964816 281.619935,51.3551656 C280.982104,51.6141348 280.515959,51.7282731 279.470491,51.9344894 L285.833461,60.3039921 C286.213283,60.7682185 286.23918,60.8276855 286.618042,61.0578804 L282.376701,61.0578804 C282.256808,60.7106697 282.171444,60.5332278 281.968105,60.2119141 L276.101972,52.0754838 L276.101972,60.1313459 Z" id="Stroke-79" stroke="#000000" stroke-width="0.25" fill="#000000"></path>
                    <path d="M296.814813,53.5572675 L293.679366,44.8175347 L290.626407,53.5572675 L296.814813,53.5572675 Z M288.270746,60.2463474 C288.1873,60.5331319 288.157566,60.7105738 288.157566,61.0577844 L286.32464,61.0577844 C286.529897,60.7364707 286.618138,60.5331319 286.733235,60.2463474 L293.064554,42.3755505 C293.155673,42.0839703 293.178692,41.9353028 293.210344,41.679211 L295.999539,41.679211 C296.028313,41.9113241 296.057088,42.0523185 296.147247,42.3189609 L302.684782,60.2463474 C302.801798,60.5331319 302.887162,60.6865952 303.149968,61.0577844 L299.369976,61.0577844 C299.369976,60.7364707 299.345038,60.5935581 299.225145,60.2463474 L297.366321,54.9844758 L290.161221,54.9844758 L288.270746,60.2463474 Z" id="Fill-81" fill="#FFFFFF"></path>
                    <path d="M296.814813,53.5572675 L293.679366,44.8175347 L290.626407,53.5572675 L296.814813,53.5572675 Z M288.270746,60.2463474 C288.1873,60.5331319 288.157566,60.7105738 288.157566,61.0577844 L286.32464,61.0577844 C286.529897,60.7364707 286.618138,60.5331319 286.733235,60.2463474 L293.064554,42.3755505 C293.155673,42.0839703 293.178692,41.9353028 293.210344,41.679211 L295.999539,41.679211 C296.028313,41.9113241 296.057088,42.0523185 296.147247,42.3189609 L302.684782,60.2463474 C302.801798,60.5331319 302.887162,60.6865952 303.149968,61.0577844 L299.369976,61.0577844 C299.369976,60.7364707 299.345038,60.5935581 299.225145,60.2463474 L297.366321,54.9844758 L290.161221,54.9844758 L288.270746,60.2463474 Z" id="Stroke-83" stroke="#000000" stroke-width="0.25" fill="#000000"></path>
                    <path d="M306.661591,60.1313459 C306.661591,60.501576 306.690365,60.7106697 306.780525,61.0578804 L305.065573,61.0578804 C305.153815,60.6866911 305.180671,60.4440273 305.180671,60.1313459 L305.180671,42.6087188 C305.180671,42.2615081 305.153815,42.0524144 305.065573,41.6793069 L308.146348,41.6793069 C308.203897,41.9353987 308.231712,41.9929474 308.49164,42.3449538 L319.070055,57.1570361 L319.070055,42.6087188 C319.070055,42.2615081 319.040321,42.0265175 318.953998,41.6793069 L320.667032,41.6793069 C320.57975,41.9929474 320.550016,42.1464107 320.550016,42.6087188 L320.550016,60.1812215 C320.550016,60.653121 320.57975,60.7682185 320.696766,61.0578804 L317.877837,61.0578804 L317.761781,60.7941154 C317.673539,60.653121 317.558442,60.501576 317.442385,60.3270116 L306.661591,45.25596 L306.661591,60.1313459 Z" id="Fill-85" fill="#FFFFFF"></path>
                    <path d="M306.661591,60.1313459 C306.661591,60.501576 306.690365,60.7106697 306.780525,61.0578804 L305.065573,61.0578804 C305.153815,60.6866911 305.180671,60.4440273 305.180671,60.1313459 L305.180671,42.6087188 C305.180671,42.2615081 305.153815,42.0524144 305.065573,41.6793069 L308.146348,41.6793069 C308.203897,41.9353987 308.231712,41.9929474 308.49164,42.3449538 L319.070055,57.1570361 L319.070055,42.6087188 C319.070055,42.2615081 319.040321,42.0265175 318.953998,41.6793069 L320.667032,41.6793069 C320.57975,41.9929474 320.550016,42.1464107 320.550016,42.6087188 L320.550016,60.1812215 C320.550016,60.653121 320.57975,60.7682185 320.696766,61.0578804 L317.877837,61.0578804 L317.761781,60.7941154 C317.673539,60.653121 317.558442,60.501576 317.442385,60.3270116 L306.661591,45.25596 L306.661591,60.1313459 Z" id="Stroke-87" stroke="#000000" stroke-width="0.25" fill="#000000"></path>
                    <path d="M338.327297,44.8778649 C336.613304,43.4506566 335.44986,42.9787571 333.711889,42.9787571 C329.729517,42.9787571 327.287533,46.1487326 327.287533,51.2878336 C327.287533,56.3799365 329.840778,59.6909064 333.798212,59.6909064 C335.538102,59.6909064 336.704423,59.1710495 338.327297,57.6297029 L338.327297,60.1810296 C336.495329,61.0576885 335.246522,61.344473 333.271641,61.344473 C327.16764,61.344473 323.832691,57.7706973 323.832691,51.2302849 C323.832691,44.9354136 327.405508,41.3846574 333.740663,41.3846574 C335.509327,41.3846574 336.761971,41.6215663 338.327297,42.2613163 L338.327297,44.8778649 Z" id="Fill-89" fill="#FFFFFF"></path>
                    <path d="M338.327297,44.8778649 C336.613304,43.4506566 335.44986,42.9787571 333.711889,42.9787571 C329.729517,42.9787571 327.287533,46.1487326 327.287533,51.2878336 C327.287533,56.3799365 329.840778,59.6909064 333.798212,59.6909064 C335.538102,59.6909064 336.704423,59.1710495 338.327297,57.6297029 L338.327297,60.1810296 C336.495329,61.0576885 335.246522,61.344473 333.271641,61.344473 C327.16764,61.344473 323.832691,57.7706973 323.832691,51.2302849 C323.832691,44.9354136 327.405508,41.3846574 333.740663,41.3846574 C335.509327,41.3846574 336.761971,41.6215663 338.327297,42.2613163 L338.327297,44.8778649 Z" id="Stroke-91" stroke="#000000" stroke-width="0.25" fill="#000000"></path>
                    <path d="M351.086712,41.6794028 L351.086712,43.2447281 C350.703054,43.1296306 350.560141,43.098938 350.188952,43.098938 L344.397632,43.098938 L344.397632,50.5102544 L350.035488,50.5102544 C350.588915,50.5102544 350.674279,50.5102544 351.11069,50.395157 L351.11069,51.9604822 C350.731828,51.8693634 350.619608,51.8693634 350.064263,51.8693634 L344.397632,51.8693634 L344.397632,59.492651 L350.006714,59.492651 C350.353925,59.492651 350.588915,59.4581218 351.11069,59.3430243 L351.11069,61.0570171 L341.053092,61.0570171 C341.144211,60.7107656 341.17874,60.501672 341.17874,60.1314418 L341.17874,42.6078555 C341.17874,42.1963822 341.144211,42.0266134 341.053092,41.6794028 L351.086712,41.6794028 Z" id="Fill-93" fill="#FFFFFF"></path>
                    <path d="M351.086712,41.6794028 L351.086712,43.2447281 C350.703054,43.1296306 350.560141,43.098938 350.188952,43.098938 L344.397632,43.098938 L344.397632,50.5102544 L350.035488,50.5102544 C350.588915,50.5102544 350.674279,50.5102544 351.11069,50.395157 L351.11069,51.9604822 C350.731828,51.8693634 350.619608,51.8693634 350.064263,51.8693634 L344.397632,51.8693634 L344.397632,59.492651 L350.006714,59.492651 C350.353925,59.492651 350.588915,59.4581218 351.11069,59.3430243 L351.11069,61.0570171 L341.053092,61.0570171 C341.144211,60.7107656 341.17874,60.501672 341.17874,60.1314418 L341.17874,42.6078555 C341.17874,42.1963822 341.144211,42.0266134 341.053092,41.6794028 L351.086712,41.6794028 Z" id="Stroke-95" stroke="#000000" stroke-width="0.25" fill="#000000"></path>
                    <path d="M367.627654,59.2355041 C370.025517,59.2355041 371.227326,58.0020431 371.227326,55.4910005 C371.227326,54.0551599 370.790915,52.9108994 369.94399,52.2347019 C369.147899,51.5911153 368.332626,51.3590022 366.746199,51.3590022 L365.316113,51.3590022 L365.316113,59.2355041 L367.627654,59.2355041 Z M366.72318,49.9816694 C369.591983,49.9816694 370.906972,48.7482084 370.906972,46.0549282 C370.906972,43.7990182 369.736814,42.6576352 367.3965,42.6576352 L365.316113,42.6576352 L365.316113,49.9816694 L366.72318,49.9816694 Z M368.532128,41.1949385 C372.105904,41.1949385 374.162311,42.9492154 374.162311,46.0290312 C374.162311,47.6989034 373.397872,49.0714404 372.077129,49.8080641 C371.545763,50.0967668 371.172655,50.2415978 370.202,50.5341371 C373.079436,51.0357702 374.536378,52.7008466 374.536378,55.3989226 C374.536378,58.5334097 372.261285,60.7288935 368.942642,60.7288935 L361.944717,60.7288935 C362.036795,60.3797646 362.06557,60.1687526 362.06557,59.7611158 L362.06557,42.1320235 C362.06557,41.7157544 362.036795,41.5450265 361.944717,41.1949385 L368.532128,41.1949385 Z" id="Fill-97" fill="#FFFFFF"></path>
                    <path d="M367.627654,59.2355041 C370.025517,59.2355041 371.227326,58.0020431 371.227326,55.4910005 C371.227326,54.0551599 370.790915,52.9108994 369.94399,52.2347019 C369.147899,51.5911153 368.332626,51.3590022 366.746199,51.3590022 L365.316113,51.3590022 L365.316113,59.2355041 L367.627654,59.2355041 Z M366.72318,49.9816694 C369.591983,49.9816694 370.906972,48.7482084 370.906972,46.0549282 C370.906972,43.7990182 369.736814,42.6576352 367.3965,42.6576352 L365.316113,42.6576352 L365.316113,49.9816694 L366.72318,49.9816694 Z M368.532128,41.1949385 C372.105904,41.1949385 374.162311,42.9492154 374.162311,46.0290312 C374.162311,47.6989034 373.397872,49.0714404 372.077129,49.8080641 C371.545763,50.0967668 371.172655,50.2415978 370.202,50.5341371 C373.079436,51.0357702 374.536378,52.7008466 374.536378,55.3989226 C374.536378,58.5334097 372.261285,60.7288935 368.942642,60.7288935 L361.944717,60.7288935 C362.036795,60.3797646 362.06557,60.1687526 362.06557,59.7611158 L362.06557,42.1320235 C362.06557,41.7157544 362.036795,41.5450265 361.944717,41.1949385 L368.532128,41.1949385 Z" id="Stroke-99" stroke="#000000" stroke-width="0.25" fill="#000000"></path>
                    <path d="M382.853991,50.567899 C385.139634,50.567899 386.719347,48.9555756 386.719347,46.6440352 C386.719347,45.4105743 386.225387,44.1828682 385.404358,43.4750189 C384.731038,42.8995316 383.908092,42.6261752 382.706282,42.6261752 L381.326072,42.6261752 L381.326072,50.567899 L382.853991,50.567899 Z M381.360601,59.7958369 C381.360601,60.1430475 381.394172,60.3559778 381.475699,60.7290853 L377.957554,60.7290853 C378.052509,60.3789973 378.081283,60.1689444 378.081283,59.7958369 L378.081283,42.1312562 C378.081283,41.839676 378.052509,41.6027671 377.957554,41.1951303 L383.908092,41.1951303 C387.537498,41.1951303 390.033194,43.3359428 390.033194,46.4944086 C390.033194,48.6064467 388.923463,50.1842409 386.932277,50.9496389 C386.282936,51.2095673 385.810077,51.3246648 384.755017,51.5327993 L391.174577,59.9694422 C391.555358,60.4375051 391.585091,60.4979313 391.962995,60.7290853 L387.687124,60.7290853 C387.573945,60.3789973 387.484745,60.2005962 387.271815,59.8773642 L381.360601,51.6747528 L381.360601,59.7958369 Z" id="Fill-101" fill="#FFFFFF"></path>
                    <path d="M382.853991,50.567899 C385.139634,50.567899 386.719347,48.9555756 386.719347,46.6440352 C386.719347,45.4105743 386.225387,44.1828682 385.404358,43.4750189 C384.731038,42.8995316 383.908092,42.6261752 382.706282,42.6261752 L381.326072,42.6261752 L381.326072,50.567899 L382.853991,50.567899 Z M381.360601,59.7958369 C381.360601,60.1430475 381.394172,60.3559778 381.475699,60.7290853 L377.957554,60.7290853 C378.052509,60.3789973 378.081283,60.1689444 378.081283,59.7958369 L378.081283,42.1312562 C378.081283,41.839676 378.052509,41.6027671 377.957554,41.1951303 L383.908092,41.1951303 C387.537498,41.1951303 390.033194,43.3359428 390.033194,46.4944086 C390.033194,48.6064467 388.923463,50.1842409 386.932277,50.9496389 C386.282936,51.2095673 385.810077,51.3246648 384.755017,51.5327993 L391.174577,59.9694422 C391.555358,60.4375051 391.585091,60.4979313 391.962995,60.7290853 L387.687124,60.7290853 C387.573945,60.3789973 387.484745,60.2005962 387.271815,59.8773642 L381.360601,51.6747528 L381.360601,59.7958369 Z" id="Stroke-103" stroke="#000000" stroke-width="0.25" fill="#000000"></path>
                    <path d="M395.952656,50.8229358 C395.952656,56.5979502 397.998513,59.5041607 402.121879,59.5041607 C406.08219,59.5041607 408.220125,56.5164228 408.220125,50.9994186 C408.220125,45.3529296 406.111924,42.4208222 402.100778,42.4208222 C398.090591,42.4208222 395.952656,45.3529296 395.952656,50.8229358 M411.707578,50.949543 C411.707578,57.4161012 408.251777,61.0186513 402.035556,61.0186513 C395.831803,61.0186513 392.465203,57.4161012 392.465203,50.7653871 C392.465203,44.5587573 396.039938,40.8986584 402.100778,40.8986584 C408.220125,40.8986584 411.707578,44.5587573 411.707578,50.949543" id="Fill-105" fill="#FFFFFF"></path>
                    <path d="M395.952656,50.8229358 C395.952656,56.5979502 397.998513,59.5041607 402.121879,59.5041607 C406.08219,59.5041607 408.220125,56.5164228 408.220125,50.9994186 C408.220125,45.3529296 406.111924,42.4208222 402.100778,42.4208222 C398.090591,42.4208222 395.952656,45.3529296 395.952656,50.8229358 Z M411.707578,50.949543 C411.707578,57.4161012 408.251777,61.0186513 402.035556,61.0186513 C395.831803,61.0186513 392.465203,57.4161012 392.465203,50.7653871 C392.465203,44.5587573 396.039938,40.8986584 402.100778,40.8986584 C408.220125,40.8986584 411.707578,44.5587573 411.707578,50.949543 Z" id="Stroke-107" stroke="#000000" stroke-width="0.25" fill="#000000"></path>
                    <path d="M418.290097,59.7955491 C418.290097,60.1686567 418.323667,60.3796687 418.408072,60.7287976 L414.929251,60.7287976 C415.010779,60.35569 415.045308,60.1111079 415.045308,59.7955491 L415.045308,42.1319276 C415.045308,41.7818395 415.010779,41.5717867 414.929251,41.1948425 L418.408072,41.1948425 C418.323667,41.5449306 418.290097,41.7473103 418.290097,42.1319276 L418.290097,49.8655169 L424.559071,41.8393882 C424.682801,41.6657829 424.767206,41.5113605 424.912037,41.1948425 L427.315655,41.1948425 C426.991464,41.428874 426.899386,41.5449306 426.615479,41.896937 L420.635207,49.5422849 L428.312207,59.9346252 C428.427305,60.1111079 428.57789,60.2847133 428.719844,60.4976435 L429.019097,60.7287976 L424.824754,60.7287976 C424.708698,60.35569 424.651149,60.2003085 424.477544,59.9931331 L418.290097,51.4672897 L418.290097,59.7955491 Z" id="Fill-109" fill="#FFFFFF"></path>
                    <path d="M418.290097,59.7955491 C418.290097,60.1686567 418.323667,60.3796687 418.408072,60.7287976 L414.929251,60.7287976 C415.010779,60.35569 415.045308,60.1111079 415.045308,59.7955491 L415.045308,42.1319276 C415.045308,41.7818395 415.010779,41.5717867 414.929251,41.1948425 L418.408072,41.1948425 C418.323667,41.5449306 418.290097,41.7473103 418.290097,42.1319276 L418.290097,49.8655169 L424.559071,41.8393882 C424.682801,41.6657829 424.767206,41.5113605 424.912037,41.1948425 L427.315655,41.1948425 C426.991464,41.428874 426.899386,41.5449306 426.615479,41.896937 L420.635207,49.5422849 L428.312207,59.9346252 C428.427305,60.1111079 428.57789,60.2847133 428.719844,60.4976435 L429.019097,60.7287976 L424.824754,60.7287976 C424.708698,60.35569 424.651149,60.2003085 424.477544,59.9931331 L418.290097,51.4672897 L418.290097,59.7955491 Z" id="Stroke-111" stroke="#000000" stroke-width="0.25" fill="#000000"></path>
                    <path d="M440.692952,41.1953221 L440.692952,42.7731163 C440.314089,42.6580188 440.169258,42.626367 439.7856,42.626367 L433.957833,42.626367 L433.957833,50.0971505 L439.646524,50.0971505 C440.198992,50.0971505 440.285315,50.0971505 440.724604,49.9810939 L440.724604,51.5588881 C440.342864,51.4677693 440.227766,51.4677693 439.669544,51.4677693 L433.957833,51.4677693 L433.957833,59.151483 L439.611995,59.151483 C439.962083,59.151483 440.198992,59.1169537 440.724604,59.0018563 L440.724604,60.7292772 L430.586437,60.7292772 C430.678515,60.3791891 430.715921,60.1691362 430.715921,59.7960287 L430.715921,42.131448 C430.715921,41.7161381 430.678515,41.5454102 430.586437,41.1953221 L440.692952,41.1953221 Z" id="Fill-113" fill="#FFFFFF"></path>
                    <path d="M440.692952,41.1953221 L440.692952,42.7731163 C440.314089,42.6580188 440.169258,42.626367 439.7856,42.626367 L433.957833,42.626367 L433.957833,50.0971505 L439.646524,50.0971505 C440.198992,50.0971505 440.285315,50.0971505 440.724604,49.9810939 L440.724604,51.5588881 C440.342864,51.4677693 440.227766,51.4677693 439.669544,51.4677693 L433.957833,51.4677693 L433.957833,59.151483 L439.611995,59.151483 C439.962083,59.151483 440.198992,59.1169537 440.724604,59.0018563 L440.724604,60.7292772 L430.586437,60.7292772 C430.678515,60.3791891 430.715921,60.1691362 430.715921,59.7960287 L430.715921,42.131448 C430.715921,41.7161381 430.678515,41.5454102 430.586437,41.1953221 L440.692952,41.1953221 Z" id="Stroke-115" stroke="#000000" stroke-width="0.25" fill="#000000"></path>
                    <path d="M449.068689,50.567899 C451.356251,50.567899 452.942677,48.9555756 452.942677,46.6440352 C452.942677,45.4105743 452.440085,44.1828682 451.617138,43.4750189 C450.939022,42.8995316 450.12279,42.6261752 448.929613,42.6261752 L447.548443,42.6261752 L447.548443,50.567899 L449.068689,50.567899 Z M447.575299,59.7958369 C447.575299,60.1430475 447.60887,60.3559778 447.696152,60.7290853 L444.179925,60.7290853 C444.269125,60.3789973 444.298859,60.1689444 444.298859,59.7958369 L444.298859,42.1312562 C444.298859,41.839676 444.269125,41.6027671 444.179925,41.1951303 L450.12279,41.1951303 C453.755073,41.1951303 456.247892,43.3359428 456.247892,46.4944086 C456.247892,48.6064467 455.130488,50.1842409 453.145057,50.9496389 C452.497634,51.2095673 452.029571,51.3246648 450.978347,51.5327993 L457.392153,59.9694422 C457.771015,60.4375051 457.804585,60.4979313 458.172897,60.7290853 L453.9047,60.7290853 C453.786725,60.3789973 453.697525,60.2005962 453.495145,59.8773642 L447.575299,51.6747528 L447.575299,59.7958369 Z" id="Fill-117" fill="#FFFFFF"></path>
                    <path d="M449.068689,50.567899 C451.356251,50.567899 452.942677,48.9555756 452.942677,46.6440352 C452.942677,45.4105743 452.440085,44.1828682 451.617138,43.4750189 C450.939022,42.8995316 450.12279,42.6261752 448.929613,42.6261752 L447.548443,42.6261752 L447.548443,50.567899 L449.068689,50.567899 Z M447.575299,59.7958369 C447.575299,60.1430475 447.60887,60.3559778 447.696152,60.7290853 L444.179925,60.7290853 C444.269125,60.3789973 444.298859,60.1689444 444.298859,59.7958369 L444.298859,42.1312562 C444.298859,41.839676 444.269125,41.6027671 444.179925,41.1951303 L450.12279,41.1951303 C453.755073,41.1951303 456.247892,43.3359428 456.247892,46.4944086 C456.247892,48.6064467 455.130488,50.1842409 453.145057,50.9496389 C452.497634,51.2095673 452.029571,51.3246648 450.978347,51.5327993 L457.392153,59.9694422 C457.771015,60.4375051 457.804585,60.4979313 458.172897,60.7290853 L453.9047,60.7290853 C453.786725,60.3789973 453.697525,60.2005962 453.495145,59.8773642 L447.575299,51.6747528 L447.575299,59.7958369 Z" id="Stroke-119" stroke="#000000" stroke-width="0.25" fill="#000000"></path>
                    <path d="M468.455511,53.1686218 L465.3028,44.3588714 L462.218189,53.1686218 L468.455511,53.1686218 Z M459.845263,59.9114139 C459.75894,60.2001166 459.730165,60.3794768 459.730165,60.7295649 L457.891484,60.7295649 C458.08619,60.4053738 458.173472,60.2001166 458.294325,59.9114139 L464.679356,41.8977043 C464.765679,41.6032466 464.794453,41.4526608 464.823227,41.1956099 L467.635442,41.1956099 C467.676685,41.4296413 467.69299,41.5715948 467.785068,41.8401556 L474.380152,59.9114139 C474.501004,60.2001166 474.582532,60.3554982 474.848215,60.7295649 L471.03753,60.7295649 C471.03753,60.4053738 470.995328,60.2615019 470.887904,59.9114139 L469.015652,54.6073399 L461.754921,54.6073399 L459.845263,59.9114139 Z" id="Fill-121" fill="#FFFFFF"></path>
                    <path d="M468.455511,53.1686218 L465.3028,44.3588714 L462.218189,53.1686218 L468.455511,53.1686218 Z M459.845263,59.9114139 C459.75894,60.2001166 459.730165,60.3794768 459.730165,60.7295649 L457.891484,60.7295649 C458.08619,60.4053738 458.173472,60.2001166 458.294325,59.9114139 L464.679356,41.8977043 C464.765679,41.6032466 464.794453,41.4526608 464.823227,41.1956099 L467.635442,41.1956099 C467.676685,41.4296413 467.69299,41.5715948 467.785068,41.8401556 L474.380152,59.9114139 C474.501004,60.2001166 474.582532,60.3554982 474.848215,60.7295649 L471.03753,60.7295649 C471.03753,60.4053738 470.995328,60.2615019 470.887904,59.9114139 L469.015652,54.6073399 L461.754921,54.6073399 L459.845263,59.9114139 Z" id="Stroke-123" stroke="#000000" stroke-width="0.25" fill="#000000"></path>
                    <path d="M490.666345,44.3853438 C488.759564,43.0646006 487.2374,42.5418663 485.359393,42.5418663 C483.491937,42.5418663 481.90647,43.2151864 480.72864,44.5004412 C479.358021,46.0283598 478.743209,48.0454426 478.743209,51.0677097 C478.743209,56.366988 481.054749,59.441049 485.070691,59.441049 C486.237971,59.441049 487.000491,59.2357919 488.084326,58.6200205 L488.084326,50.9727543 C488.084326,50.5919736 488.060347,50.3915122 487.968269,50.0395059 L491.368439,50.0395059 C491.282116,50.4183683 491.242791,50.6255437 491.242791,50.9727543 L491.242791,58.4991682 C491.242791,59.0593091 491.282116,59.2357919 491.447089,59.6693256 C487.91072,60.813586 486.971717,61.0188431 484.720603,61.0188431 C481.732865,61.0188431 479.623704,60.2611183 477.980688,58.583573 C476.187086,56.7477687 475.255756,54.1705451 475.255756,51.0360579 C475.255756,44.743105 479.034789,40.8978911 485.212644,40.8978911 C487.115589,40.8978911 488.52841,41.1635744 490.666345,41.9548693 L490.666345,44.3853438 Z" id="Fill-125" fill="#FFFFFF"></path>
                    <path d="M490.666345,44.3853438 C488.759564,43.0646006 487.2374,42.5418663 485.359393,42.5418663 C483.491937,42.5418663 481.90647,43.2151864 480.72864,44.5004412 C479.358021,46.0283598 478.743209,48.0454426 478.743209,51.0677097 C478.743209,56.366988 481.054749,59.441049 485.070691,59.441049 C486.237971,59.441049 487.000491,59.2357919 488.084326,58.6200205 L488.084326,50.9727543 C488.084326,50.5919736 488.060347,50.3915122 487.968269,50.0395059 L491.368439,50.0395059 C491.282116,50.4183683 491.242791,50.6255437 491.242791,50.9727543 L491.242791,58.4991682 C491.242791,59.0593091 491.282116,59.2357919 491.447089,59.6693256 C487.91072,60.813586 486.971717,61.0188431 484.720603,61.0188431 C481.732865,61.0188431 479.623704,60.2611183 477.980688,58.583573 C476.187086,56.7477687 475.255756,54.1705451 475.255756,51.0360579 C475.255756,44.743105 479.034789,40.8978911 485.212644,40.8978911 C487.115589,40.8978911 488.52841,41.1635744 490.666345,41.9548693 L490.666345,44.3853438 Z" id="Stroke-127" stroke="#000000" stroke-width="0.25" fill="#000000"></path>
                    <path d="M505.130066,41.1953221 L505.130066,42.7731163 C504.748326,42.6580188 504.601576,42.626367 504.225591,42.626367 L498.394947,42.626367 L498.394947,50.0971505 L504.075965,50.0971505 C504.630351,50.0971505 504.717633,50.0971505 505.154044,49.9810939 L505.154044,51.5588881 C504.778059,51.4677693 504.659125,51.4677693 504.104739,51.4677693 L498.394947,51.4677693 L498.394947,59.151483 L504.04719,59.151483 C504.399197,59.151483 504.630351,59.1169537 505.154044,59.0018563 L505.154044,60.7292772 L495.023551,60.7292772 C495.107955,60.3791891 495.142485,60.1691362 495.142485,59.7960287 L495.142485,42.131448 C495.142485,41.7161381 495.107955,41.5454102 495.023551,41.1953221 L505.130066,41.1953221 Z" id="Fill-129" fill="#FFFFFF"></path>
                    <path d="M505.130066,41.1953221 L505.130066,42.7731163 C504.748326,42.6580188 504.601576,42.626367 504.225591,42.626367 L498.394947,42.626367 L498.394947,50.0971505 L504.075965,50.0971505 C504.630351,50.0971505 504.717633,50.0971505 505.154044,49.9810939 L505.154044,51.5588881 C504.778059,51.4677693 504.659125,51.4677693 504.104739,51.4677693 L498.394947,51.4677693 L498.394947,59.151483 L504.04719,59.151483 C504.399197,59.151483 504.630351,59.1169537 505.154044,59.0018563 L505.154044,60.7292772 L495.023551,60.7292772 C495.107955,60.3791891 495.142485,60.1691362 495.142485,59.7960287 L495.142485,42.131448 C495.142485,41.7161381 495.107955,41.5454102 495.023551,41.1953221 L505.130066,41.1953221 Z" id="Stroke-131" stroke="#000000" stroke-width="0.25" fill="#000000"></path>
                    <g id="Group-136" transform="translate(202.441141, 0.682172)">
                        <mask id="mask-2" fill="white">
                            <use xlink:href="#path-1"></use>
                        </mask>
                        <g id="Clip-135"></g>
                        <path d="M292.808193,6.07973489 C293.476717,5.25774729 295.020941,5.45341295 295.185914,6.5151869 C295.465985,8.336604 292.120486,8.7528731 292.808193,6.07973489" id="Fill-134" fill="#000000" mask="url(#mask-2)"></path>
                    </g>
                    <g id="Group-139" transform="translate(421.473505, 6.593885)" fill="#000000">
                        <path d="M4.18704924,8.20153532 C3.77557587,8.29457243 3.52715721,8.65521109 3.19241547,8.52093074 C1.35181547,10.1639468 1.89756919,12.1810296 1.97717826,14.5040797 C3.78804476,14.5299766 5.44832543,14.6143814 7.40306374,14.4801011 C7.45485759,11.8040854 7.31674066,10.7375157 7.38771741,8.1545372 C6.49475305,8.20153532 5.15962267,7.97613616 4.18704924,8.20153532 M37.6094296,1.7436094 C36.1889352,3.24467194 34.6025088,4.8771374 33.2827247,6.54700952 C35.1799143,6.94313657 36.5908171,7.16374001 37.5326979,8.48064663 C38.4937616,9.81194043 38.3220746,11.5825228 38.3028917,13.5842593 C38.2913819,14.6134223 38.4448452,15.654095 38.1839576,16.458818 C27.7753119,16.5863843 16.8017294,16.4137382 6.80455702,16.3638626 C4.58605373,16.353312 2.21696461,16.5470594 0.0656014956,16.2890493 C0.136578255,12.9118983 -0.651839257,8.56217399 1.81796013,6.94121828 C3.52140234,5.82573219 6.58395358,6.38299566 9.13336203,6.28132625 C9.36643436,9.66710948 9.13336203,10.9744246 9.20721622,14.4187157 C9.63019934,14.7093368 10.2536438,14.5175077 10.7687049,14.5165486 C14.5621249,14.5175077 18.9070536,14.7563349 23.7488195,14.6565838 C27.4655079,14.5827296 32.3686591,14.7419477 36.5630019,14.631646 C36.516963,12.3824501 36.9533741,10.244515 35.7199131,9.28345132 C34.2716036,8.14974147 31.5831191,8.52956305 29.4048999,8.3108779 C30.4321446,6.77432698 31.7797439,5.53127455 32.9825122,4.16065579 C34.1728116,2.80250591 35.3669476,1.44435604 36.6397336,0.174447541 C37.0943685,-0.165089927 38.146551,0.109225654 38.8620734,0.0344123139 C38.7086102,0.72403785 38.0976346,1.23238491 37.6094296,1.7436094 Z" id="Fill-137"></path>
                    </g>
                    <g id="Group-142" transform="translate(410.761876, 6.660922)" fill="#000000">
                        <path d="M1.83876275,0.0219511315 C2.19748312,0.119783961 2.15144414,0.661701108 2.15432158,0.930261817 C2.17925936,1.96230226 2.0257961,2.890755 2.04401986,3.96787527 C2.09005884,8.21880765 2.1610356,12.476454 1.99222601,16.1279205 C1.52895878,16.3955221 0.500754925,16.3053624 0.0221413744,16.1049011 C0.0499565907,11.7311981 -0.0910377818,5.57252551 0.111341896,0.0871730181 C0.528570141,-0.0605353722 1.54718255,0.0248285676 1.83876275,0.0219511315" id="Fill-140"></path>
                    </g>
                    <g id="Group-145" transform="translate(352.583763, 6.360199)" fill="#000000">
                        <path d="M2.01792851,0.103988938 C2.12823023,2.46540489 2.07931381,4.79996478 2.02751996,6.59356666 C1.96229808,8.91373936 2.21167588,11.042083 1.95078833,13.5761451 C1.29665118,13.7411181 0.802691299,13.6663048 0.0603127656,13.6375304 C-0.0288877558,8.73437917 -0.00107253947,5.59317801 0.0296201131,1.47844428 C0.0353749854,1.03340082 -0.0998645148,0.501075131 0.210898592,0.0838468852 C0.695267015,-0.0159042355 1.5421924,-0.046596888 2.01792851,0.103988938" id="Fill-143"></path>
                    </g>
                    <g id="Group-148" transform="translate(313.788397, 7.026033)" fill="#000000">
                        <path d="M2.92877838,8.38381638 C1.63680954,9.5760341 1.4986926,13.7109099 2.77819256,14.5434481 C3.66827948,15.1218128 4.86817036,14.6767693 6.14767032,14.8254368 C6.15054775,12.2510906 6.11697766,10.2800468 6.13807886,7.76133102 C4.87392524,7.70857802 3.704727,7.66445734 2.92877838,8.38381638 M5.96639184,15.9725747 C4.66579069,15.7932145 2.28135524,15.7769091 1.13325821,14.6901973 C-0.320806204,13.3071097 -0.400415271,10.0440971 1.03830282,8.28022868 C2.50195868,6.48758594 5.12905791,6.69092476 7.95757767,6.79451247 C8.16379393,9.07152363 7.82905219,12.2635595 8.03814588,14.2720099 C9.20350753,14.390944 10.7745877,14.298866 12.637248,14.3218855 C12.9106045,12.1005048 12.7667327,10.2858017 12.7974253,7.50428006 C12.8127716,6.1422936 12.7974253,4.82442783 12.7600186,3.56123335 C12.7178162,2.37668879 12.7485089,1.1892668 12.9595209,0.112146524 C13.4141558,-0.0835191363 14.1229642,0.0123954028 14.6811869,0.131329431 C14.6907783,4.79853091 14.6533716,10.3625333 14.6907783,14.2614593 C16.3261212,14.450411 18.0938262,14.3391501 19.4586901,14.3142123 C19.6620289,10.4478973 19.4654041,5.75000313 19.6121533,0.101595924 C20.3430221,0.081453871 20.830268,0.0047222397 21.4201424,0.122697123 C21.4594673,5.33277489 21.5707282,9.80814729 21.3309419,16.0588978 C16.5342558,16.172077 12.293874,16.0521838 8.01992212,16.0780807 C7.51637079,16.7005661 7.23438204,17.7604217 6.43637308,18.197792 C5.59808001,18.6562635 4.20827833,18.679283 2.9776948,18.6514678 C2.48373492,18.6409172 1.91879829,18.7656061 1.50157004,18.4721076 C1.53609927,18.2188932 1.32029156,18.0769397 1.51116149,17.8975795 C1.64927843,17.4621275 2.21996994,17.6702621 2.49908125,17.6597115 C4.19293201,17.6175091 5.62589522,17.5666744 5.96639184,15.9725747" id="Fill-146"></path>
                    </g>
                    <g id="Group-151" transform="translate(272.674415, 6.892262)" fill="#000000">
                        <path d="M1.9052017,0.0896728909 C2.01838085,3.2615667 1.8313475,6.10831022 1.88697793,9.20826813 C1.89561024,9.46819653 2.03660462,9.754981 2.04619607,10.0312149 C2.04907351,10.2163299 1.88697793,10.3371823 1.87450904,10.5251748 C1.7699622,11.6972504 2.03084974,13.2424336 1.91767059,14.2188437 C6.15229749,14.4538343 10.199891,14.3435326 12.6792819,14.3377777 C16.9599478,14.3253088 20.1817171,14.5459122 23.8514074,14.2926978 C24.0816023,12.0866634 23.7967361,9.46819653 24.0144621,6.90152346 C24.4403227,6.77203883 25.3917949,6.78354858 25.821492,6.92070637 C25.8588987,9.08357923 25.8646536,11.3999153 25.821492,14.3157173 C27.3407783,14.5161787 28.8475957,14.3914898 30.096403,14.3607972 C30.1635432,12.3226132 30.1539518,10.6767197 30.1577883,8.53111148 C30.1539518,7.97864374 30.0378952,7.4031565 30.2613761,6.88713628 C30.9519607,6.81040465 31.4459206,6.70681695 31.983042,6.90536004 C32.1767894,9.32720216 31.8516391,12.4012631 32.1489742,14.3847758 C33.5176747,14.412591 34.6801589,14.4960367 36.17163,14.3444917 C36.4200486,12.4559344 36.033513,9.84130409 36.3346847,6.9552356 C36.9235999,6.80369063 37.6017157,6.76532482 38.1417146,6.97441851 C38.0314129,10.4129547 38.2702401,13.3364299 38.0438818,16.0910955 C31.3576792,16.3730842 24.0911937,15.9539377 17.423215,16.0306693 C16.5849219,16.0412199 15.7600569,16.1006869 14.8728474,16.0853406 C9.83445665,16.0028541 5.42526528,16.2013972 0.0914577621,15.9261224 C0.0147261308,13.1503557 0.0367864748,10.4100773 0.00897125846,8.28269282 C-0.0245988302,5.60571804 0.0367864748,3.22703747 0.180658284,0.0714491285 C0.726412011,0.0244510043 1.28847121,-0.0714635349 1.9052017,0.0896728909" id="Fill-149"></path>
                    </g>
                    <g id="Group-154" transform="translate(238.126003, 6.838830)" fill="#000000">
                        <path d="M2.84650145,8.23809977 C1.62167279,9.08310686 1.98710718,11.3131199 1.97176086,12.8285696 C1.96888342,13.3714459 1.79144152,13.8807521 2.04273762,14.229881 C3.11026644,14.1752097 4.67271428,14.3699163 6.15171647,14.1895969 C6.28311939,12.2828159 6.14212502,10.3165678 6.21885665,7.78250571 C4.70628437,7.77675083 3.64738786,7.68275459 2.84650145,8.23809977 M29.3745447,9.10228977 C28.8124855,7.97529393 27.2567517,7.81223921 25.9379268,7.91390863 C22.2337073,8.20548882 17.9501639,7.6683674 14.7648421,7.87554281 C14.5442386,9.82644454 14.6977019,12.2693878 14.6113788,14.1186202 C15.7374155,14.3449785 17.0082832,14.2260444 18.3060069,14.2413908 C22.2183609,14.282634 26.2717094,14.3852626 29.5644555,14.1972701 C29.4052373,12.6233125 29.9883977,10.3357507 29.3745447,9.10228977 M17.1464001,0.0959145391 C17.1675013,2.70862659 17.0878922,4.32862315 17.2413555,6.66797876 C19.3984735,7.07273812 24.0838987,6.62673551 27.6739799,6.86652186 C29.4109922,6.9816193 30.7058385,7.56094312 31.2611837,8.87593145 C32.0102762,10.6311675 31.3139367,13.5114811 31.5163164,16.0273195 C26.3244623,16.2412089 20.101527,16.0311561 15.6578064,16.017728 C11.3186327,16.0033409 5.43331657,16.1078877 0.134038287,15.931405 C-0.117257806,13.5354598 0.0477152017,11.8924437 0.124446833,9.19436772 C0.510982426,8.68314323 0.569490295,8.12875719 0.959862469,7.72495698 C2.48106706,6.16826401 5.58102497,6.85309382 8.03835546,6.8166463 C8.24457172,10.0700675 8.02588657,11.5864763 8.12180111,14.2106981 C9.68041237,14.2720834 11.0088287,14.3238773 12.5588077,14.1790463 C12.6106015,11.9308095 12.5952552,9.49458023 12.6384168,6.86556271 C13.3136551,6.70634458 14.770597,6.8780316 15.5139346,6.73320065 C15.8448398,4.57991924 15.38445,2.26166483 15.6673979,0.246500366 C15.7374155,0.180319334 15.7163143,0.0201420532 15.8323709,0 C16.2841284,0.022060344 16.8241272,-0.0450798334 17.1464001,0.0959145391" id="Fill-152"></path>
                    </g>
                    <g id="Group-157" transform="translate(493.520657, 9.045755)" fill="#000000">
                        <path d="M1.12729268,0.00831741802 C1.75361462,-0.0559453232 2.44707674,0.24714462 2.51421692,1.09311086 C2.59382599,2.09733608 1.90995532,2.51264604 1.43134177,2.5606033 C-0.16467616,2.71502571 -0.643289711,0.200146496 1.12729268,0.00831741802" id="Fill-155"></path>
                    </g>
                    <g id="Group-160" transform="translate(496.733565, 9.035141)" fill="#000000">
                        <path d="M0.765156689,2.51510706 C0.179118855,2.04704411 -0.118216217,1.54732936 0.0438793545,0.865376986 C0.289420575,-0.188723799 1.97080245,-0.267373721 2.4283148,0.561327897 C2.90117348,1.41976302 2.27772897,2.86615427 0.765156689,2.51510706" id="Fill-158"></path>
                    </g>
                    <g id="Group-163" transform="translate(424.158020, 8.740473)" fill="#000000">
                        <path d="M0.910165392,0.0505057783 C1.73886701,-0.140364155 2.22611287,0.243294002 2.3766987,0.640380194 C2.72390933,1.51416165 2.09758739,2.75050006 0.796986235,2.43110464 C-0.295480366,2.16638051 -0.271501731,0.320984779 0.910165392,0.0505057783" id="Fill-161"></path>
                    </g>
                    <g id="Group-166" transform="translate(427.260873, 8.768650)" fill="#000000">
                        <path d="M2.48074828,0.730369702 C2.81836746,3.07739847 -0.203899666,2.79924631 0.0109489014,1.0325005 C0.15482071,-0.145330041 1.95609576,-0.408135878 2.48074828,0.730369702" id="Fill-164"></path>
                    </g>
                    <g id="Group-169" transform="translate(225.826444, 6.543119)" fill="#000000">
                        <path d="M1.1657494,0 C1.69999338,0.00192480624 2.20929958,0.432581087 2.21793189,1.07904508 C2.22464591,1.5020282 1.96088093,2.09669834 1.46692105,2.22234639 C-0.184727313,2.63957463 -0.650871973,-0.0047892115 1.1657494,0" id="Fill-167"></path>
                    </g>
                    <g id="Group-172" transform="translate(240.106741, 10.033330)" fill="#000000">
                        <path d="M0.838235844,0.0333123219 C1.78011662,-0.217024625 2.88505211,0.99533515 2.13020469,1.93625678 C1.42715111,2.80907908 -0.0854211676,2.24701989 0.00377935385,1.00876319 C0.0373494425,0.55604656 0.344275968,0.161837804 0.838235844,0.0333123219" id="Fill-170"></path>
                    </g>
                    <g id="Group-175" transform="translate(243.046056, 10.062744)" fill="#000000">
                        <path d="M0.939796294,0.0345910587 C1.28700693,-0.0248759556 1.6246261,-0.0162436471 1.83851553,0.128587307 C2.50799901,0.570753333 2.42455336,2.25405349 1.32633189,2.33941743 C0.80743423,2.38066069 -0.170894069,2.09963109 0.0257307364,0.847946351 C0.0746471514,0.52759179 0.271271957,0.152565942 0.939796294,0.0345910587" id="Fill-173"></path>
                    </g>
                    <g id="Group-178" transform="translate(461.025971, 12.958330)" fill="#000000">
                        <path d="M43.1068713,0.229850528 C43.3648814,1.81244042 43.137564,3.4727211 43.1318091,5.16081699 C43.1318091,6.70504107 43.3313114,8.31832361 43.0819335,10.0064195 C37.5745207,10.1234352 31.0168437,10.1531687 25.9937993,10.0668457 C20.1756233,9.9661354 13.8606101,10.022725 7.34321712,9.94599334 C6.66414218,11.6302527 5.59661336,12.839735 3.28603211,13.0229318 C2.74027838,13.0680116 2.15711799,13.011422 1.5614887,13.004708 C1.05505993,13.0008714 0.45367577,13.1121323 0,12.8234295 C0.00287743617,12.5500731 0.00575487235,12.2776758 0.00863230852,12.0043194 C2.24919594,11.8287957 4.47057667,12.2249228 5.12471383,10.1685151 C5.49206651,9.00027599 5.27146307,7.1874912 5.25899418,5.48692642 C5.23501555,3.57918624 5.27721794,1.62444793 5.39998855,0.0667958117 C6.11551102,0.0428171769 6.38215343,-0.0166498373 7.20797762,0.00445136129 C7.49572123,2.32078748 7.31827934,5.52625138 7.20510018,7.97399042 C8.32154542,8.28667182 9.69312333,8.10347505 10.9764599,8.09772017 C16.3678161,8.06990496 22.3941266,8.30777302 27.3279705,8.19459386 C27.6195507,5.95211193 27.291523,2.84256257 27.5802257,0.226013947 C28.0645942,0.0974884643 29.0716968,0.108039064 29.5503104,0.248074291 C29.5589427,3.17154944 29.4332946,5.8456468 29.5464738,8.1341677 C31.2748538,8.28379438 32.219612,8.13320855 34.2290216,8.18404326 C34.5455396,5.79768953 34.1714729,2.59414392 34.4783994,0.219299929 C35.1287,0.106120773 35.7857146,0.118589663 36.3679158,0.239441982 C36.5127468,3.05165627 36.3525695,5.51761907 36.4446474,8.12745368 C37.94571,8.30777302 39.3844281,8.16965608 40.9650997,8.25693831 C41.3180652,6.96688776 41.1185629,5.63367566 41.0878703,4.3982964 C41.0571776,3.12455132 41.1243178,1.73091307 41.2163958,0.21066762 C41.9376731,0.264379762 42.5726273,0.144486588 43.1068713,0.229850528" id="Fill-176"></path>
                    </g>
                    <g id="Group-181" transform="translate(207.268135, 11.069015)" fill="#000000">
                        <path d="M18.9169377,1.46253508 C18.4229778,1.91333341 18.0824812,2.37851893 17.830226,3.17556875 C17.4254666,4.47904733 17.3794276,7.10518742 18.3520011,7.78330321 C19.156724,8.33864839 20.5772184,8.10941264 21.6361149,8.14681931 C21.7828641,7.01694604 21.8049245,5.88899106 21.834658,4.61812342 C21.8720646,3.58608298 21.7703952,2.2701355 21.7157239,1.0827135 C20.746028,1.00790016 19.8923886,0.87937468 18.9169377,1.46253508 M23.6148318,0.116854094 C23.4863063,2.67489485 24.1001594,7.48021326 23.0901793,10.5466011 C21.2946591,12.7392074 17.4408129,11.7263499 14.8568753,12.0160118 C14.7993265,14.1366823 13.74043,15.8823269 11.4480725,16.0060566 C10.2357128,16.0731968 8.72985449,15.9379573 7.17316152,15.9600177 C5.16375193,15.9859146 2.45128876,16.3225746 1.10368949,15.071849 C-0.767603173,13.3338776 0.364188389,10.6233327 0.115769732,7.91374698 C0.56369063,7.80152697 1.48447021,7.78138492 1.92279965,7.93197074 C2.34674191,10.25598 0.910901262,13.9985653 3.57444801,14.8512456 C3.72119726,14.8992029 4.14513952,14.9337321 4.31107167,14.9423644 C5.96176089,15.0306058 7.624919,14.8886523 9.24203813,14.9145492 C11.0404357,14.9452418 12.6019244,15.1898239 12.8724034,13.3108581 C13.1112306,11.6381085 12.7304499,9.50017346 13.0162752,7.8063227 C13.8075702,7.8888092 14.2468588,7.66245089 14.7379412,7.8274239 C14.9182606,9.15679941 14.8175503,9.68145194 14.8693441,10.8688739 C16.9036915,10.8257124 21.1872348,11.7244316 21.6265234,9.21338899 C19.9691202,9.04362025 18.5208106,9.15967685 17.447527,8.51225371 C16.5325023,7.96937741 16.1920056,7.08216793 15.6615982,6.19399929 C15.5848666,4.63634718 15.6951683,3.11226515 16.3636927,2.00924795 C17.1674565,0.685627311 18.7327818,0.0458773352 20.7431505,0.00463408333 C21.7128465,-0.0155079699 22.7285815,0.0314901543 23.6148318,0.116854094" id="Fill-179"></path>
                    </g>
                    <g id="Group-184" transform="translate(214.996516, 27.677521)" fill="#000000">
                        <path d="M0.918123337,0.0241598269 C2.61485153,-0.284684989 2.64554419,2.47381716 0.893185557,2.24170397 C-0.158996937,2.10358704 -0.438108246,0.270660192 0.918123337,0.0241598269" id="Fill-182"></path>
                    </g>
                    <g id="Group-187" transform="translate(212.068230, 27.614654)" fill="#000000">
                        <path d="M1.60335188,2.27877001 C-0.151884184,2.76505672 -0.499094815,0.378702986 0.72573385,0.052593553 C2.19898117,-0.339696912 2.86462807,1.56804327 1.60335188,2.27877001" id="Fill-185"></path>
                    </g>
                    <g id="Group-190" transform="translate(342.743943, 6.343091)" fill="#000000">
                        <path d="M56.8581649,9.56541751 C56.7229254,8.87291454 55.849144,8.0077654 55.3149,7.82360948 C54.4459143,7.52051954 52.6110691,7.58765972 52.1909634,7.78908025 C52.0931306,8.30510047 52.188086,9.17312705 52.1698622,10.2531248 C52.1238233,12.6327645 51.8869144,14.654643 53.7562887,15.281924 C54.6118464,15.5706268 55.7014356,15.3154941 56.7967796,15.3960623 C56.6308475,13.757842 57.1861926,11.2487177 56.8581649,9.56541751 M65.5058198,0.293359015 C65.7753396,2.95019175 65.5365124,5.57825012 65.5787148,8.7558988 C65.60653,11.1988421 65.6707928,14.1184807 65.4933509,16.4789375 C64.022981,16.66693 62.1027719,16.5844435 60.071302,16.5806069 C56.7814333,16.5806069 52.8355091,16.9556328 51.0428664,15.4181227 C50.2765092,15.809454 49.7978957,16.2919041 48.8090168,16.4607137 C47.6129625,16.66693 46.0140671,16.501957 44.5408198,16.4962021 C40.5431018,16.4818149 36.4216541,16.5211399 32.0546651,16.4415308 C27.9341765,16.3686358 22.9447022,16.4760601 20.225525,16.4789375 C18.378211,16.4789375 16.4944494,16.4894881 15.3031908,15.4382647 C14.8677388,15.5619945 14.2874559,16.0818513 13.6525016,16.2439469 C12.2876377,16.5911575 9.7219238,16.435776 7.89667012,16.4271436 C4.42552295,16.4089199 0.835441748,16.660216 0.126633304,13.6293165 C-0.0757463735,12.7632082 0.00961756639,11.6458039 0.074839453,10.5917031 C0.549616422,10.4794831 1.50108865,10.4603002 1.96435587,10.610886 C2.13316546,12.6672937 1.83583039,14.6210729 3.9680106,15.1505211 C4.62790263,15.314535 5.65898392,15.2723326 6.51550076,15.261782 C7.34036579,15.2521905 8.15372109,15.2886381 8.9824227,15.2886381 C10.013504,15.2886381 12.0574428,15.4296324 12.8429829,15.2473948 C13.6899083,15.0517292 14.1128914,14.147255 14.1809907,12.9617513 C14.3920027,9.15586243 13.9997122,4.55771943 14.2385394,0.147568915 C14.7056433,-0.106604614 15.4413078,0.0334306136 16.2086241,0.0861836102 C16.5069183,4.50592557 16.003367,7.60492433 16.2431533,12.0802967 C16.2978246,13.058625 16.656545,14.2153544 17.6147312,14.4791194 C18.4856352,14.71411 19.8974973,14.5184443 21.1463046,14.5174852 C25.6082489,14.5146077 29.0170516,14.5577693 32.9783221,14.5635241 C37.655115,14.5683199 40.7694601,14.5846253 44.3135023,14.6057265 C46.5626983,14.6162771 48.9039722,15.0411786 49.6655336,13.6763147 C50.3072019,12.517667 49.9197072,11.2458402 49.9542364,9.98456405 C49.9820516,8.87771027 49.9503998,7.77469307 50.070293,6.61604544 C51.3776082,6.52588577 53.0743364,6.37050422 54.7557182,6.50286628 C55.7474746,6.57863877 56.8763887,6.81267024 57.5429947,7.27114174 C59.5706281,8.67437145 58.785088,11.7263721 58.9385513,14.5980534 C60.3868608,14.8081062 62.308029,14.6795807 63.3755579,14.6479289 C63.7285234,14.07436 63.4829821,13.4605069 63.4772273,12.9243447 C63.4340657,10.1946169 63.5472449,4.69583636 63.6086302,0.35474432 C64.2196058,0.205117639 64.9255368,0.284726706 65.5058198,0.293359015" id="Fill-188"></path>
                    </g>
                    <path d="M137.792535,4.13509516 C137.479854,4.14756405 137.191151,4.12934029 136.976302,4.0430172 C136.942732,3.77829307 136.822839,3.59605545 136.819962,3.30063867 C136.589767,3.1999284 136.252148,3.20664242 135.914528,3.20951985 C135.696802,3.58550485 135.828205,3.94710266 135.739964,4.35665774 C136.543728,4.82663898 137.03481,4.30390475 137.95559,4.6261776 C137.958467,4.97722481 138.111931,5.23139834 137.943121,5.53161085 C136.623337,5.67068693 135.104051,5.60162846 134.000074,5.57093581 C133.831265,5.24194894 133.861957,4.98777541 133.929098,4.58493435 C134.168884,4.45544972 134.414425,4.56958802 134.58899,4.59260751 C134.893039,3.98355019 134.389487,3.11936019 134.776023,2.37698165 C136.211864,2.22255925 138.442836,2.15925565 137.792535,4.13509516" id="Fill-192" fill="#000000"></path>
                    <path d="M199.601399,7.38237779 C199.580298,12.8399151 199.683885,19.0484632 199.515076,23.1545646 C198.984668,23.3531077 198.383284,23.2485609 197.787655,23.2188274 C197.674476,22.6327895 197.643783,22.0083859 197.643783,21.4098791 C197.664884,17.0918066 197.695577,12.3584241 197.797246,7.27879009 C198.404385,7.20205846 199.165947,7.13971401 199.601399,7.38237779" id="Fill-194" fill="#000000"></path>
                    <path d="M192.786095,7.22517387 C192.905988,10.0018998 192.887765,12.77383 192.85995,15.604268 C192.829257,18.6562686 192.976006,20.6925343 192.696895,23.243861 C182.469527,23.2390653 151.337586,23.269758 141.696257,23.2352287 C139.848943,23.230433 137.329268,23.1815166 135.039788,23.164252 C134.849877,21.7245747 134.828776,20.1985744 134.844122,18.724368 C134.862346,17.346076 134.94771,15.9620292 134.96977,14.6997939 C135.015809,11.923068 134.708883,9.19717679 135.052257,7.06211915 C135.850266,7.166666 136.279963,7.0400588 136.7768,7.16091112 C136.893816,12.0276148 136.740353,16.1567358 136.866001,21.3754458 C139.311821,21.3850373 162.920226,21.5250725 166.423984,21.4799927 C169.848133,21.4349128 165.715176,21.5030122 169.112469,21.4301171 C169.16714,18.8739946 169.127815,15.8920116 169.192078,14.0331879 C170.066818,13.9363142 170.281667,13.9871489 170.999108,14.0562073 C171.13147,16.1740004 170.956905,18.9267476 171.085431,21.369691 C173.570577,21.5749481 183.960999,21.5126036 186.471082,21.4512183 C188.082446,21.4138116 189.152853,21.6277011 190.908089,21.5010939 C191.025104,18.1997154 191.067307,14.740078 191.015513,11.5614702 C190.98482,9.9855943 190.920558,8.61017981 191.058674,7.36904567 C191.368478,7.04869111 192.227873,7.28847746 192.786095,7.22517387" id="Fill-196" fill="#000000"></path>
                    <path d="M168.51636,9.03172421 C169.91863,8.91279018 170.062502,11.1073148 168.820409,11.3336731 C167.396078,11.5926424 166.717962,9.18326918 168.51636,9.03172421" id="Fill-198" fill="#000000"></path>
                    <path d="M171.22585,9.06097814 C172.937924,8.71856324 173.006024,11.4128026 171.446453,11.3619679 C170.391393,11.329357 169.728624,9.36023151 171.22585,9.06097814" id="Fill-200" fill="#000000"></path>
                    <path d="M90.7945069,12.2478346 C89.2819346,12.4895393 88.7812607,10.1146953 90.4108487,9.94396739 C91.7737943,9.80009558 92.1171684,12.0368226 90.7945069,12.2478346 Z" id="Fill-202" fill="#000000"></path>
                    <path d="M128.694274,17.5086512 C128.681805,17.2640691 128.737435,16.9206951 128.703865,16.7691501 C128.325962,15.0618713 126.383693,14.6743765 124.533501,14.9966494 C124.3551,15.5826872 124.434709,16.3931624 124.428954,17.2151527 C124.416485,18.04865 124.333999,18.9377778 124.398262,19.6782381 C124.61311,22.1173448 126.423977,22.250666 128.64248,22.1087125 C128.684682,20.6047725 128.755659,18.6452385 128.694274,17.5086512 M130.443755,23.1138968 C127.880919,23.1474669 124.868243,23.6577323 123.46885,22.1355685 C122.919259,22.3897421 122.446401,22.8664373 121.89777,23.0208597 C120.780365,23.3354594 119.242855,23.1474669 117.871277,23.2232394 C116.766342,23.2836656 115.588511,23.1829553 114.419313,23.1867919 C111.578324,23.1954242 109.294599,23.2078931 106.370165,23.1800779 C105.220149,23.1695273 103.995321,23.128284 102.755146,23.1426712 C101.273266,23.154181 99.5093978,23.1426712 97.9872341,23.1724047 C97.4932742,23.8303785 97.2841805,24.7760958 96.6492263,25.2911569 C95.0503309,26.1793255 92.1047954,25.9462532 90.1529345,25.9606404 C88.1924414,25.977905 85.4243478,26.1045122 84.2493947,25.0763083 C83.737211,24.62551 83.1933756,23.4601483 83.123358,22.5988358 C82.9267332,20.047509 83.3564303,16.1063806 83.2183134,14.0547686 C83.7669445,13.9617315 84.4882219,14.0269534 85.0224658,14.0749107 C85.2066218,16.788333 85.0349347,18.7987017 85.0282207,21.1390165 C85.0282207,22.138446 84.9486116,23.2078931 85.5749336,23.939721 C86.6856239,25.2384039 88.7477865,24.7914421 90.4963086,24.8144616 C91.7575848,24.8307671 93.7065682,25.1328979 94.8508287,24.7808915 C96.1370426,24.3799688 96.0324958,22.3983744 96.0449647,20.6843816 C96.0574336,18.622219 95.9960483,16.0776063 96.0324958,14.1132765 C96.4526015,13.8495115 97.5325992,13.9569358 97.8395257,14.050932 C98.0735572,16.4430406 97.907625,18.2587029 97.9258488,21.2819291 C100.459911,21.3960675 103.41216,21.3394779 106.637766,21.3768845 C110.040814,21.4133321 112.136547,21.3577016 115.260483,21.3874351 C115.508902,19.0298558 115.302686,15.6776426 115.422579,13.9128151 C116.021086,13.7401689 116.816217,13.7324958 117.229609,13.931998 C117.279484,16.8861658 117.218099,18.4265533 117.233446,21.2435633 C118.224243,21.4008632 119.951664,21.5955697 121.01056,21.3672931 C121.893933,21.1783414 122.308284,20.4311672 122.431054,19.4115956 C122.633434,17.6832156 122.314998,15.7313548 122.572049,13.9080194 C123.302918,13.7814122 124.689842,13.8514298 125.367958,13.8581438 C126.920814,13.865817 128.285678,13.8878773 129.218926,14.5544834 C129.612176,14.835513 129.688908,14.9343049 129.948836,15.3035759 C130.725744,16.3816553 130.53871,18.2040316 130.554057,20.3208655 C130.562689,21.2186256 130.624074,22.151874 130.443755,23.1138968" id="Fill-204" fill="#000000"></path>
                    <path d="M114.569707,23.6957144 C116.300005,23.3609727 116.232865,25.8710562 114.953365,26.0005408 C113.673865,26.1300254 113.026442,23.9930495 114.569707,23.6957144" id="Fill-206" fill="#000000"></path>
                    <path d="M117.279293,23.7263112 C118.420676,23.4145889 118.835026,24.2538411 118.829272,24.8091863 C118.810089,26.3332684 116.39592,26.4243872 116.527323,24.701762 C116.567607,24.2212302 116.824658,23.9421189 117.279293,23.7263112" id="Fill-208" fill="#000000"></path>
                </g>
            </g>
        </g>
    </g>
</svg>